<svg width="37" height="36" viewBox="0 0 37 36" fill="none" xmlns="http://www.w3.org/2000/svg">
<path d="M24.8633 17.7495C24.8359 14.7128 27.3496 13.2549 27.4606 13.1873C26.0481 11.124 23.8458 10.8365 23.0646 10.802C21.1894 10.6136 19.4051 11.9048 18.4567 11.9048C17.5083 11.9048 16.0381 10.8336 14.4873 10.8638C12.4406 10.8911 10.5611 12.05 9.50752 13.8688C7.3859 17.541 8.9627 22.9846 11.0339 25.9623C12.0428 27.4202 13.2463 29.0579 14.8274 28.999C16.3538 28.94 16.9303 28.0169 18.7723 28.0169C20.6143 28.0169 21.1318 28.999 22.7446 28.9745C24.3834 28.94 25.4226 27.4821 26.4228 26.0241C27.5816 24.3318 28.063 22.6941 28.0904 22.6079C28.0544 22.5949 24.8936 21.3843 24.8619 17.7495H24.8633Z" fill="#A8ABAC"/>
<path d="M21.8322 8.83034C22.6739 7.81668 23.2404 6.40474 23.0847 5C21.8754 5.04601 20.4096 5.80661 19.5434 6.81596C18.7636 7.71747 18.079 9.15816 18.2649 10.5327C19.6126 10.6348 20.9948 9.84687 21.8322 8.83034Z" fill="#A8ABAC"/>
</svg>
