<svg width="36" height="36" viewBox="0 0 36 36" fill="none" xmlns="http://www.w3.org/2000/svg">
<path d="M26.8034 17.2451C26.1292 17.2451 25.5759 17.7876 25.5759 18.4615C25.5759 19.1296 26.1292 19.6721 26.8034 19.6721C27.4834 19.6721 28.0309 19.1296 28.0309 18.4615C28.0251 17.7876 27.4777 17.2451 26.8034 17.2451Z" fill="#DDDDDD"/>
<path d="M28.267 7H6.92722C4.20716 7 2 9.19855 2 11.8996V23.5205C2 26.2216 4.2014 28.4202 6.92722 28.4202H14.2806L16.7874 32.4632C16.7874 32.4632 16.8105 32.5146 16.8681 32.5774C17.018 32.8287 17.2888 33 17.6 33C17.9112 33 18.1763 32.8287 18.3261 32.5831C18.3895 32.5089 18.4126 32.4632 18.4126 32.4632L20.9194 28.4202H28.2728C30.9928 28.4202 33.2 26.2273 33.2 23.5205V11.8996C33.1942 9.19855 30.9871 7 28.267 7ZM8.93269 21.3448C7.78013 21.3448 7.32486 20.5282 7.32486 20.5282V21.145H5.39431V13.2644H7.30181V16.2682C8.07403 15.5201 8.92693 15.5201 8.92693 15.5201C11.5144 15.5201 11.6182 18.3982 11.6182 18.3982C11.6182 21.242 8.93269 21.3448 8.93269 21.3448ZM14.9433 21.145H13.0992V16.4795C13.0992 14.8691 12.229 14.9091 12.229 14.9091V13.0817C15.0183 13.0817 14.9376 16.0455 14.9376 16.0455V21.145H14.9433ZM19.4441 21.3448C16.1881 21.3448 16.2861 18.461 16.2861 18.461C16.2861 15.5429 19.4441 15.5429 19.4441 15.5429C22.7808 15.5429 22.6713 18.461 22.6713 18.461C22.6713 21.3391 19.4441 21.3448 19.4441 21.3448ZM29.7999 21.0764C29.7999 24.063 27.0107 24.0288 27.0107 24.0288H26.2673V22.3556H26.7283C28.0826 22.3556 27.9443 20.9736 27.9443 20.9736V20.5339C27.3507 21.2991 26.2673 21.2535 26.2673 21.2535C23.6106 21.2535 23.6395 18.4439 23.6395 18.4439C23.6395 15.4287 26.3422 15.5487 26.3422 15.5487C27.3968 15.5487 27.9443 16.2682 27.9443 16.2682V15.7314H29.7999V21.0764Z" fill="#DDDDDD"/>
<path d="M8.50629 17.2451C7.82628 17.2451 7.27881 17.7876 7.27881 18.4615C7.27881 19.1296 7.82628 19.6721 8.50629 19.6721C9.18631 19.6721 9.73378 19.1296 9.73378 18.4615C9.73378 17.7876 9.18631 17.2451 8.50629 17.2451Z" fill="#DDDDDD"/>
<path d="M19.444 17.2451C18.764 17.2451 18.2166 17.7876 18.2166 18.4615C18.2166 19.1296 18.764 19.6721 19.444 19.6721C20.1241 19.6721 20.6715 19.1296 20.6715 18.4615C20.6715 17.7876 20.1241 17.2451 19.444 17.2451Z" fill="#DDDDDD"/>
</svg>
