<svg width="20" height="20" viewBox="0 0 20 20" fill="none" xmlns="http://www.w3.org/2000/svg">
<path d="M19 15V10" stroke="#DDDDDD" stroke-width="1.2" stroke-linejoin="round"/>
<path d="M6.73251 14.9999H9.54702L5.27351 5L1 14.9999H3.81452L5.27351 11.5861L6.73251 14.9999Z" stroke="#DDDDDD" stroke-width="1.2" stroke-linejoin="round"/>
<path d="M3.81592 15H6.73391" stroke="#DDDDDD" stroke-width="1.2" stroke-linejoin="round"/>
<path d="M1 15V10" stroke="#DDDDDD" stroke-width="1.2" stroke-linejoin="round"/>
<path d="M5.27393 5L6.92435 8.85502L8.29539 7.46322L9.67161 8.85502L11.0478 7.46322L12.424 8.85502L13.7951 7.46322L15.1713 8.85502L15.9991 8.01994L14.7057 5H5.27393Z" stroke="#DDDDDD" stroke-width="1.2" stroke-linejoin="round"/>
<path d="M13.7953 7.46313L12.4242 8.85493L11.048 7.46313L9.67182 8.85493L8.2956 7.46313L6.92456 8.85493L9.54765 14.9999H18.9794L15.9993 8.01985L15.1715 8.85493L13.7953 7.46313Z" stroke="#DDDDDD" stroke-width="1.2" stroke-linejoin="round"/>
<path d="M9.54614 15V10" stroke="#DDDDDD" stroke-width="1.2" stroke-linejoin="round"/>
</svg>
