<svg width="34" height="34" viewBox="0 0 34 34" fill="none" xmlns="http://www.w3.org/2000/svg">
<path d="M17.6025 16.8001C14.6904 16.8001 12.2705 14.9007 11.5459 12.3334H8.45605C4.9834 12.3334 2.16699 15.0317 2.16699 18.3588V18.9614C2.16699 22.2885 4.9834 24.9868 8.45605 24.9868L6.8291 29.8334L14.54 24.9868H16.8779C20.3506 24.9868 23.167 22.2885 23.167 18.9614V18.8304L19.9268 16.787H17.6025V16.8001Z" stroke="#3F422F" stroke-width="1.56" stroke-miterlimit="10" stroke-linecap="round" stroke-linejoin="round"/>
<path d="M16.1072 17.312L12.2241 21.0291C12.0965 21.1512 11.8698 21.1512 11.7422 21.0291L9.9707 19.3333" stroke="#3F422F" stroke-width="1.56" stroke-miterlimit="10" stroke-linecap="round"/>
<path d="M26.1877 4.16663H17.785C14.3146 4.16663 11.5 6.86296 11.5 10.1876V10.7897C11.5 11.3394 11.5956 11.8499 11.7459 12.3603C12.4701 14.9258 14.8884 16.8237 17.7986 16.8237H20.135L23.3731 18.8656L27.8409 21.6666L26.215 16.8237C29.6854 16.8237 32.5 14.1274 32.5 10.8028V10.1876C32.4863 6.86296 29.6581 4.16663 26.1877 4.16663Z" stroke="#3F422F" stroke-width="1.56" stroke-miterlimit="10" stroke-linecap="round" stroke-linejoin="round"/>
<path d="M20.0898 8.99613C20.0898 7.95156 20.9685 7.11047 22.0598 7.11047C23.151 7.11047 24.0297 7.95156 24.0297 8.99613C24.0297 10.0407 23.151 10.8818 22.0598 10.8818V12.0213" stroke="#3F422F" stroke-width="1.56" stroke-miterlimit="10" stroke-linecap="round" stroke-linejoin="round"/>
<path d="M22.127 15.345C22.6102 15.345 23.002 14.9532 23.002 14.47C23.002 13.9867 22.6102 13.595 22.127 13.595C21.6437 13.595 21.252 13.9867 21.252 14.47C21.252 14.9532 21.6437 15.345 22.127 15.345Z" fill="#3F422F"/>
</svg>
