<svg width="34" height="34" viewBox="0 0 34 34" fill="none" xmlns="http://www.w3.org/2000/svg">
<line x1="0.75" y1="-0.75" x2="9.48443" y2="-0.75" transform="matrix(0.777312 -0.629116 -0.654946 -0.755675 8.9834 14.4387)" stroke="#3F422F" stroke-width="1.5" stroke-linecap="round"/>
<line x1="0.75" y1="-0.75" x2="9.48443" y2="-0.75" transform="matrix(-0.777312 -0.629115 0.654946 -0.755676 24.7212 14.4387)" stroke="#3F422F" stroke-width="1.5" stroke-linecap="round"/>
<line x1="0.75" y1="-0.75" x2="8.02427" y2="-0.75" transform="matrix(9.51652e-09 1 1 -3.20063e-09 9.5293 18.2257)" stroke="#3F422F" stroke-width="1.5" stroke-linecap="round"/>
<line x1="0.75" y1="-0.75" x2="8.02427" y2="-0.75" transform="matrix(9.51652e-09 1 1 -3.20063e-09 26 18.2257)" stroke="#3F422F" stroke-width="1.5" stroke-linecap="round"/>
<line x1="0.75" y1="-0.75" x2="17.25" y2="-0.75" transform="matrix(-1 -1.14842e-07 -5.50082e-08 1 26 27)" stroke="#3F422F" stroke-width="1.5" stroke-linecap="round"/>
<line x1="0.75" y1="-0.75" x2="10.861" y2="-0.75" transform="matrix(9.51652e-09 1 1 -3.20063e-09 17.8359 9.05573)" stroke="#3F422F" stroke-width="1.5" stroke-linecap="round"/>
</svg>
