<svg width="34" height="35" viewBox="0 0 34 35" fill="none" xmlns="http://www.w3.org/2000/svg">
<path d="M8.27584 12.5447H21.9901C22.2175 12.5447 22.4355 12.635 22.5962 12.7957C22.757 12.9565 22.8473 13.1745 22.8473 13.4018V21.1161C22.8473 22.0254 22.486 22.8975 21.8431 23.5405C21.2001 24.1835 20.328 24.5447 19.4187 24.5447H10.8473C9.93796 24.5447 9.06589 24.1835 8.42291 23.5405C7.77992 22.8975 7.4187 22.0254 7.4187 21.1161V13.4018C7.4187 13.1745 7.50901 12.9565 7.66975 12.7957C7.8305 12.635 8.04852 12.5447 8.27584 12.5447V12.5447Z" stroke="#3F422F" stroke-width="2" stroke-linecap="round" stroke-linejoin="round"/>
<path d="M5.70435 28.8303H27.9901" stroke="#3F422F" stroke-width="2" stroke-linecap="round" stroke-linejoin="round"/>
<path d="M22.8472 14.259H24.5615C25.4708 14.259 26.3428 14.6203 26.9858 15.2632C27.6288 15.9062 27.99 16.7783 27.99 17.6876C27.99 18.5969 27.6288 19.469 26.9858 20.112C26.3428 20.755 25.4708 21.1162 24.5615 21.1162H22.8472" stroke="#3F422F" stroke-width="2" stroke-linecap="round" stroke-linejoin="round"/>
<path d="M9.98999 6.54468V8.25896" stroke="#3F422F" stroke-width="1.5" stroke-linecap="round" stroke-linejoin="round"/>
<path d="M18.5615 6.54468V8.25896" stroke="#3F422F" stroke-width="1.5" stroke-linecap="round" stroke-linejoin="round"/>
<path d="M14.2759 6.54468V8.25896" stroke="#3F422F" stroke-width="1.5" stroke-linecap="round" stroke-linejoin="round"/>
</svg>
