<svg width="34" height="35" viewBox="0 0 34 35" fill="none" xmlns="http://www.w3.org/2000/svg">
<path d="M23.8712 13.6745C25.7647 13.6745 27.2998 12.1395 27.2998 10.246C27.2998 8.35241 25.7647 6.81738 23.8712 6.81738C21.9777 6.81738 20.4426 8.35241 20.4426 10.246C20.4426 12.1395 21.9777 13.6745 23.8712 13.6745Z" stroke="#3F422F" stroke-width="2" stroke-linecap="round" stroke-linejoin="round"/>
<path d="M23.8712 17.103C19.5854 17.103 19.5854 29.103 19.5854 29.103H28.1569C28.1569 29.103 28.1569 17.103 23.8712 17.103Z" stroke="#3F422F" stroke-width="2" stroke-linecap="round" stroke-linejoin="round"/>
<path d="M10.1568 13.6745C12.0504 13.6745 13.5854 12.1395 13.5854 10.246C13.5854 8.35241 12.0504 6.81738 10.1568 6.81738C8.2633 6.81738 6.72827 8.35241 6.72827 10.246C6.72827 12.1395 8.2633 13.6745 10.1568 13.6745Z" stroke="#3F422F" stroke-width="2" stroke-linecap="round" stroke-linejoin="round"/>
<path d="M10.1568 29.103C5.87109 29.103 5.87109 17.103 5.87109 17.103H14.4425C14.4425 17.103 14.4425 29.103 10.1568 29.103Z" stroke="#3F422F" stroke-width="2" stroke-linecap="round" stroke-linejoin="round"/>
</svg>
