<svg width="34" height="35" viewBox="0 0 34 35" fill="none" xmlns="http://www.w3.org/2000/svg">
<path d="M5.70459 20.259H27.9903V23.6876C27.9903 25.0516 27.4485 26.3597 26.484 27.3242C25.5195 28.2886 24.2114 28.8305 22.8474 28.8305H10.8474C9.48348 28.8305 8.17537 28.2886 7.2109 27.3242C6.24642 26.3597 5.70459 25.0516 5.70459 23.6876V20.259Z" stroke="#3F422F" stroke-width="2" stroke-linecap="round" stroke-linejoin="round"/>
<path d="M17.7048 9.97325C17.7048 9.06394 17.3436 8.19186 16.7006 7.54888C16.0576 6.9059 15.1855 6.54468 14.2762 6.54468C13.3669 6.54468 12.4948 6.9059 11.8519 7.54888C11.2089 8.19186 10.8477 9.06394 10.8477 9.97325V20.259" stroke="#3F422F" stroke-width="2" stroke-linecap="round" stroke-linejoin="round"/>
<path d="M17.7046 13.4019V15.1161" stroke="#3F422F" stroke-width="2" stroke-linecap="round" stroke-linejoin="round"/>
</svg>
