<svg width="34" height="35" viewBox="0 0 34 35" fill="none" xmlns="http://www.w3.org/2000/svg">
<path d="M8.46436 20.4019V27.7947C8.46436 28.0126 8.5509 28.2215 8.70495 28.3756C8.85899 28.5296 9.06793 28.6161 9.28578 28.6161H25.7144C25.9322 28.6161 26.1411 28.5296 26.2952 28.3756C26.4492 28.2215 26.5358 28.0126 26.5358 27.7947V20.4019" stroke="#3F422F" stroke-width="2" stroke-linecap="round" stroke-linejoin="round"/>
<path d="M19.1428 20.4019V28.6161" stroke="#3F422F" stroke-width="2" stroke-linecap="round" stroke-linejoin="round"/>
<path d="M8.46436 22.8662H19.1429" stroke="#3F422F" stroke-width="2" stroke-linecap="round" stroke-linejoin="round"/>
<path d="M6.82153 13.009L9.28582 7.25903H25.7144L28.1787 13.009H6.82153Z" stroke="#3F422F" stroke-width="2" stroke-linecap="round" stroke-linejoin="round"/>
<path d="M13.8036 13.009V14.6519C13.8036 15.5233 13.4575 16.3591 12.8413 16.9752C12.2251 17.5914 11.3894 17.9376 10.5179 17.9376H10.0579C9.18651 17.9376 8.35077 17.5914 7.73458 16.9752C7.11839 16.3591 6.77222 15.5233 6.77222 14.6519V13.009" stroke="#3F422F" stroke-width="1.5" stroke-linecap="round" stroke-linejoin="round"/>
<path d="M21.1966 13.009V14.6519C21.1966 15.5233 20.8504 16.3591 20.2342 16.9752C19.618 17.5914 18.7823 17.9376 17.9109 17.9376H17.0894C16.218 17.9376 15.3823 17.5914 14.7661 16.9752C14.1499 16.3591 13.8037 15.5233 13.8037 14.6519V13.009" stroke="#3F422F" stroke-width="1.5" stroke-linecap="round" stroke-linejoin="round"/>
<path d="M28.1787 13.009V14.6519C28.1787 15.5233 27.8325 16.3591 27.2163 16.9752C26.6001 17.5914 25.7644 17.9376 24.893 17.9376H24.4822C23.6108 17.9376 22.7751 17.5914 22.1589 16.9752C21.5427 16.3591 21.1965 15.5233 21.1965 14.6519V13.009" stroke="#3F422F" stroke-width="1.5" stroke-linecap="round" stroke-linejoin="round"/>
</svg>
