<svg width="15" height="16" viewBox="0 0 15 16" fill="none" xmlns="http://www.w3.org/2000/svg">
<path d="M11.207 5.34973C11.207 3.0688 9.28768 1.24799 7.01809 1.50094C5.29838 1.69065 3.90776 3.09933 3.69545 4.86127C3.57231 5.8818 3.83982 6.83255 4.35998 7.58486L6.90132 11.6604C7.16459 12.0377 7.71022 12.0377 7.97348 11.6604L10.5148 7.58486C10.9501 6.95248 11.2091 6.18272 11.2091 5.34973H11.207Z" stroke="#777777" stroke-linecap="round" stroke-linejoin="round"/>
<path d="M7.436 6.92C8.37053 6.92 9.12811 6.14189 9.12811 5.18204C9.12811 4.2222 8.37053 3.44409 7.436 3.44409C6.50148 3.44409 5.7439 4.2222 5.7439 5.18204C5.7439 6.14189 6.50148 6.92 7.436 6.92Z" stroke="#777777" stroke-linecap="round" stroke-linejoin="round"/>
<path d="M9.75428 8.96533H12.372L14.0705 14.7469H0.80127L2.49973 8.96533H5.22364" stroke="#777777" stroke-linecap="round" stroke-linejoin="round"/>
</svg>
