<svg width="34" height="34" viewBox="0 0 34 34" fill="none" xmlns="http://www.w3.org/2000/svg">
<path d="M15.073 18.9007C14.3182 18.1336 13.6184 17.2159 13.2341 16.2023C12.8636 15.2024 12.8224 14.0245 13.3713 13.1068C13.8105 12.3671 14.579 11.833 14.8123 11.0111C14.977 10.4085 14.8123 9.7373 14.4829 9.20311C14.1536 8.66893 13.6732 8.24432 13.1929 7.8471C12.6577 7.40879 12.0402 6.98418 11.3403 6.99788C10.8462 7.01158 10.3796 7.24443 9.9679 7.51837C8.29364 8.64153 7.16831 10.5591 7.01736 12.5726C6.83895 15.0792 8.06034 17.4899 9.5562 19.517C11.5324 22.2017 14.0575 24.5439 17.0767 25.982C18.5451 26.6806 20.1782 27.16 21.7838 26.9545C23.3757 26.7491 24.8304 25.8588 25.9558 24.6945C26.4773 24.1466 26.9576 23.4892 26.9987 22.7358C27.0262 21.9825 26.6008 21.2702 26.1067 20.695C25.6813 20.1745 25.1872 19.6951 24.5971 19.4074C23.9933 19.1061 23.266 19.0239 22.6621 19.2705C21.9759 19.5581 21.5231 20.2156 20.9055 20.6265C20.0409 21.2155 18.9568 21.2018 17.9961 20.8593C16.912 20.4621 15.8827 19.7088 15.073 18.9007Z" stroke="#3F422F" stroke-width="1.5" stroke-miterlimit="10" stroke-linecap="round" stroke-linejoin="round"/>
</svg>
