<svg width="34" height="35" viewBox="0 0 34 35" fill="none" xmlns="http://www.w3.org/2000/svg">
<path d="M27.9901 28.8304H27.1329C26.2236 28.8304 25.3515 28.4692 24.7086 27.8262C24.0656 27.1832 23.7043 26.3112 23.7043 25.4019C23.7043 26.3112 23.3431 27.1832 22.7001 27.8262C22.0572 28.4692 21.1851 28.8304 20.2758 28.8304C19.3665 28.8304 18.4944 28.4692 17.8514 27.8262C17.2084 27.1832 16.8472 26.3112 16.8472 25.4019C16.8472 26.3112 16.486 27.1832 15.843 27.8262C15.2 28.4692 14.3279 28.8304 13.4186 28.8304C12.5093 28.8304 11.6372 28.4692 10.9943 27.8262C10.3513 27.1832 9.99006 26.3112 9.99006 25.4019C9.99006 26.3112 9.62884 27.1832 8.98585 27.8262C8.34287 28.4692 7.4708 28.8304 6.56149 28.8304H5.70435" stroke="#3F422F" stroke-width="2" stroke-linecap="round" stroke-linejoin="round"/>
<path d="M9.13281 9.97325C9.13281 9.06394 9.49404 8.19186 10.137 7.54888C10.78 6.9059 11.6521 6.54468 12.5614 6.54468C13.4707 6.54468 14.3428 6.9059 14.9858 7.54888C15.6287 8.19186 15.99 9.06394 15.99 9.97325V21.9732" stroke="#3F422F" stroke-width="2" stroke-linecap="round" stroke-linejoin="round"/>
<path d="M21.1328 6.54468C22.0421 6.54468 22.9142 6.9059 23.5572 7.54888C24.2002 8.19186 24.5614 9.06394 24.5614 9.97325V21.9732" stroke="#3F422F" stroke-width="2" stroke-linecap="round" stroke-linejoin="round"/>
<path d="M15.99 13.4019H24.5614" stroke="#3F422F" stroke-width="1.5" stroke-linecap="round" stroke-linejoin="round"/>
<path d="M15.99 18.5447H24.5614" stroke="#3F422F" stroke-width="1.5" stroke-linecap="round" stroke-linejoin="round"/>
</svg>
