<svg width="24" height="24" viewBox="0 0 24 24" fill="none" xmlns="http://www.w3.org/2000/svg">
<path d="M6.57014 8.19908C7.46979 8.19908 8.1991 7.46977 8.1991 6.57012C8.1991 5.67047 7.46979 4.94116 6.57014 4.94116C5.67049 4.94116 4.94118 5.67047 4.94118 6.57012C4.94118 7.46977 5.67049 8.19908 6.57014 8.19908Z" stroke="#777777" stroke-width="1.5" stroke-linecap="round" stroke-linejoin="round"/>
<path d="M8.1991 6.57013H19.0588" stroke="#777777" stroke-width="1.5" stroke-linecap="round" stroke-linejoin="round"/>
<path d="M12 13.629C12.8997 13.629 13.629 12.8996 13.629 12C13.629 11.1003 12.8997 10.371 12 10.371C11.1004 10.371 10.371 11.1003 10.371 12C10.371 12.8996 11.1004 13.629 12 13.629Z" stroke="#777777" stroke-width="1.5" stroke-linecap="round" stroke-linejoin="round"/>
<path d="M4.94118 12H10.371" stroke="#777777" stroke-width="1.5" stroke-linecap="round" stroke-linejoin="round"/>
<path d="M13.629 12H19.0588" stroke="#777777" stroke-width="1.5" stroke-linecap="round" stroke-linejoin="round"/>
<path d="M17.4299 19.0588C18.3295 19.0588 19.0588 18.3295 19.0588 17.4299C19.0588 16.5302 18.3295 15.8009 17.4299 15.8009C16.5302 15.8009 15.8009 16.5302 15.8009 17.4299C15.8009 18.3295 16.5302 19.0588 17.4299 19.0588Z" stroke="#777777" stroke-width="1.5" stroke-linecap="round" stroke-linejoin="round"/>
<path d="M15.8009 17.4299H4.94118" stroke="#777777" stroke-width="1.5" stroke-linecap="round" stroke-linejoin="round"/>
</svg>
