<svg width="36" height="36" viewBox="0 0 36 36" fill="none" xmlns="http://www.w3.org/2000/svg">
<path d="M23.4911 5H12.5034C8.35751 5 5 8.35822 5 12.505V23.495C5 27.6418 8.35751 31 12.5034 31H23.4966C27.6425 31 31 27.6418 31 23.495V12.505C30.9945 8.35822 27.637 5 23.4911 5ZM28.6018 23.688C28.6018 26.4397 26.369 28.673 23.6179 28.673H12.3711C9.62001 28.673 7.38719 26.4397 7.38719 23.688V12.4388C7.38719 9.68717 9.62001 7.45387 12.3711 7.45387H23.6179C26.369 7.45387 28.6018 9.68717 28.6018 12.4388V23.688Z" fill="#DDDDDD"/>
<path d="M17.9945 11.3193C14.2676 11.3193 11.252 14.3412 11.252 18.0689C11.252 21.791 14.2676 24.8129 17.9945 24.8129C21.7214 24.8129 24.7426 21.791 24.7426 18.0689C24.7426 14.3412 21.7214 11.3193 17.9945 11.3193ZM17.9945 22.4417C15.5798 22.4417 13.6226 20.4841 13.6226 18.0689C13.6226 15.6536 15.5798 13.696 17.9945 13.696C20.4093 13.696 22.3665 15.6536 22.3665 18.0689C22.372 20.4841 20.4148 22.4417 17.9945 22.4417Z" fill="#DDDDDD"/>
<path d="M24.9687 9.48828C24.1031 9.48828 23.3975 10.1886 23.3975 11.0599C23.3975 11.9311 24.1031 12.6314 24.9687 12.6314C25.8398 12.6314 26.54 11.9311 26.54 11.0599C26.54 10.1941 25.8398 9.48828 24.9687 9.48828Z" fill="#DDDDDD"/>
</svg>
