<svg width="20" height="20" viewBox="0 0 20 20" fill="none" xmlns="http://www.w3.org/2000/svg">
<path d="M17.4895 5.89684C16.981 4.45866 15.5339 3.47168 13.9597 3.47168C12.1117 3.47168 10.5081 4.88166 10.2637 6.62063C10.029 4.88166 8.41567 3.47168 6.56766 3.47168C4.99344 3.47168 3.54632 4.45866 3.03788 5.89684C2.04054 8.7074 3.92766 11.3206 6.05922 13.0595C6.72411 13.6047 9.72589 16.0487 10.2246 16.4435C10.2343 16.4529 10.2539 16.4717 10.2637 16.4717C10.2637 16.4717 10.293 16.4529 10.3028 16.4435C10.8015 16.0393 13.8032 13.5953 14.4681 13.0595C16.5997 11.3206 18.4868 8.7074 17.4895 5.89684Z" stroke="#DDDDDD" stroke-width="1.2" stroke-linecap="round" stroke-linejoin="round"/>
</svg>
