<svg width="34" height="34" viewBox="0 0 34 34" fill="none" xmlns="http://www.w3.org/2000/svg">
<path d="M26.6344 11.3579C25.9565 9.36659 24.027 8 21.928 8C19.464 8 17.3259 9.95228 17 12.3601C16.6871 9.95228 14.536 8 12.072 8C9.97302 8 8.04354 9.36659 7.36561 11.3579C6.03583 15.2495 8.55198 18.8677 11.3941 21.2755C12.2806 22.0304 16.283 25.4143 16.9479 25.961C16.9609 25.974 16.987 26 17 26C17 26 17.0391 25.974 17.0521 25.961C17.717 25.4013 21.7194 22.0174 22.6059 21.2755C25.448 18.8677 27.9642 15.2495 26.6344 11.3579Z" fill="#EB604D" stroke="#EB604D" stroke-width="2" stroke-linecap="round" stroke-linejoin="round"/>
</svg>
