<svg width="34" height="34" viewBox="0 0 34 34" fill="none" xmlns="http://www.w3.org/2000/svg">
<path d="M23.4253 12.4063C23.4253 8.45274 20.0986 5.29666 16.1646 5.7351C13.1838 6.06394 10.7734 8.50565 10.4054 11.5597C10.1919 13.3286 10.6556 14.9766 11.5572 16.2806L15.9622 23.3449C16.4186 23.9988 17.3643 23.9988 17.8206 23.3449L22.2256 16.2806C22.9801 15.1844 23.429 13.8502 23.429 12.4063H23.4253Z" stroke="#3F422F" stroke-width="1.5" stroke-linecap="round" stroke-linejoin="round"/>
<path d="M16.8888 15.128C18.5087 15.128 19.8218 13.7793 19.8218 12.1156C19.8218 10.4519 18.5087 9.10315 16.8888 9.10315C15.269 9.10315 13.9558 10.4519 13.9558 12.1156C13.9558 13.7793 15.269 15.128 16.8888 15.128Z" stroke="#3F422F" stroke-width="1.5" stroke-linecap="round" stroke-linejoin="round"/>
<path d="M20.9072 18.6732H25.4447L28.3887 28.6946H5.38867L8.33267 18.6732H13.0541" stroke="#3F422F" stroke-width="1.5" stroke-linecap="round" stroke-linejoin="round"/>
</svg>
