<svg width="66" height="65" viewBox="0 0 66 65" fill="none" xmlns="http://www.w3.org/2000/svg">
<path d="M25.413 10.8945L26.2616 11.5805L26.2616 11.5805L25.413 10.8945ZM17.5669 19.0647L16.8487 18.2427C16.4747 18.5723 16.3623 19.108 16.574 19.5521L17.5669 19.0647ZM29.0667 26.2079C29.6693 26.27 30.2158 25.83 30.2874 25.225C30.359 24.6201 29.9285 24.0793 29.3258 24.0171L29.0667 26.2079ZM26.9446 9.47829L27.2381 10.5347L27.2381 10.5347L26.9446 9.47829ZM18.182 18.269C17.6763 17.9409 16.9944 18.0899 16.6589 18.602C16.3235 19.114 16.4615 19.7951 16.9672 20.1232L18.182 18.269ZM29.7449 21.6518C30.3507 21.6065 30.813 21.0782 30.7774 20.4718C30.7419 19.8653 30.2219 19.4103 29.6161 19.4555L29.7449 21.6518ZM24.5644 10.2085C23.0821 12.0374 20.4064 15.1083 16.8487 18.2427L18.2851 19.8867C21.9634 16.6458 24.7258 13.4756 26.2616 11.5805L24.5644 10.2085ZM16.574 19.5521C17.5081 21.5115 18.7426 23.028 20.7671 24.1265C22.7408 25.1973 25.3895 25.8285 29.0667 26.2079L29.3258 24.0171C25.7433 23.6475 23.4345 23.0528 21.8369 22.186C20.2902 21.3468 19.34 20.2139 18.5598 18.5773L16.574 19.5521ZM26.2616 11.5805C26.6204 11.1378 26.8316 10.88 27.0094 10.7055C27.1644 10.5535 27.2212 10.5396 27.2381 10.5347L26.6512 8.4219C26.1645 8.56474 25.7982 8.83619 25.4846 9.14389C25.1939 9.42915 24.891 9.80554 24.5644 10.2085L26.2616 11.5805ZM29.8346 10.3671C30.445 9.44184 30.4448 9.44172 30.4446 9.4416C30.4445 9.44156 30.4443 9.44144 30.4442 9.44134C30.4439 9.44116 30.4436 9.44096 30.4433 9.44074C30.4426 9.4403 30.4418 9.43978 30.4409 9.4392C30.4391 9.43802 30.4368 9.43656 30.4341 9.43482C30.4287 9.43134 30.4216 9.42675 30.4127 9.42112C30.395 9.40987 30.3705 9.39446 30.3399 9.37559C30.2787 9.33789 30.1925 9.28604 30.0865 9.22558C29.8762 9.1056 29.5802 8.94717 29.242 8.79777C28.9082 8.65027 28.5061 8.49935 28.0879 8.40956C27.6854 8.32313 27.1665 8.27063 26.6512 8.4219L27.2381 10.5347C27.2374 10.5349 27.2651 10.5271 27.3319 10.5285C27.398 10.5298 27.4857 10.5398 27.5952 10.5633C27.8178 10.6111 28.0723 10.7018 28.329 10.8152C28.5814 10.9267 28.8099 11.0486 28.9765 11.1437C29.059 11.1907 29.1244 11.2301 29.1676 11.2568C29.1892 11.2701 29.2051 11.2801 29.2148 11.2863C29.2197 11.2893 29.2229 11.2914 29.2245 11.2925C29.2253 11.293 29.2257 11.2932 29.2257 11.2932C29.2257 11.2932 29.2256 11.2931 29.2253 11.293C29.2252 11.2929 29.2251 11.2928 29.2249 11.2927C29.2248 11.2926 29.2247 11.2925 29.2246 11.2925C29.2245 11.2924 29.2243 11.2923 29.8346 10.3671ZM16.9672 20.1232C17.9135 20.7373 19.1203 21.1169 20.3445 21.3598C21.583 21.6056 22.9186 21.7263 24.1764 21.7775C26.6922 21.8801 28.9906 21.7081 29.7449 21.6518L29.6161 19.4555C28.8736 19.511 26.6818 19.6742 24.3003 19.577C23.1094 19.5285 21.8946 19.4156 20.804 19.1992C19.6992 18.98 18.7984 18.669 18.182 18.269L16.9672 20.1232Z" fill="#3F422F"/>
<path d="M39.0571 26.6377L9.12256 28.8726C16.7194 30.2437 25.7473 31.0234 31.7715 30.5736C36.2617 30.2384 39.1056 27.4648 39.0571 26.6377Z" stroke="#3F422F" stroke-width="2.2" stroke-linejoin="round"/>
<path d="M28.9696 8.16933C32.5444 13.5558 30.345 24.2847 28.58 27.4199" stroke="#3F422F" stroke-width="2.2" stroke-linecap="round" stroke-linejoin="round"/>
<path d="M8 39.8291C9.71309 42.9825 11.9276 42.9825 13.6825 39.8291C19.3246 29.4719 24.6989 47.2788 28.6825 39.9459C34.7576 28.9578 39.127 48.015 43.6825 39.8291C49.623 28.9241 53.3238 46.9822 58 41.0021" stroke="#3F422F" stroke-width="2.1" stroke-linecap="round"/>
<path d="M8 49.8291C9.71309 52.9825 11.9276 52.9825 13.6825 49.8291C19.3246 39.4719 24.6989 57.2788 28.6825 49.9459C34.7576 38.9578 39.127 58.015 43.6825 49.8291C49.623 38.9241 53.3238 56.9822 58 51.0021" stroke="#3F422F" stroke-width="2.2" stroke-linecap="round"/>
</svg>
