<svg width="66" height="65" viewBox="0 0 66 65" fill="none" xmlns="http://www.w3.org/2000/svg">
<path d="M33.6526 35.7649C29.24 35.5417 25.9907 31.7942 26.395 27.3944C26.7994 22.9947 30.7044 19.6089 35.117 19.8321C39.5296 20.0552 42.779 23.8028 42.3746 28.2025C41.9702 32.6023 38.0653 35.9881 33.6526 35.7649Z" stroke="#3F422F" stroke-width="2.3" stroke-linecap="round" stroke-linejoin="round"/>
<circle cx="4" cy="4" r="2.9" transform="matrix(1 0 0 -1 44.5 18.1924)" stroke="#3F422F" stroke-width="2.2"/>
<path d="M37.8077 30.5912C36.962 30.9355 35.9609 31.1067 34.9086 31.0428C32.1733 30.8766 30.1278 29.1844 30.34 27.263C30.5521 25.3417 32.9416 23.9189 35.6769 24.0851C36.4365 24.1312 37.1429 24.2951 37.7626 24.5488" stroke="#3F422F" stroke-width="2.3" stroke-linecap="round" stroke-linejoin="round"/>
<path d="M10.5 44.1133H16.3949C17.119 44.1133 17.8331 44.2267 18.4807 44.4446L23.5071 46.1359C24.1548 46.3538 24.8689 46.4672 25.5929 46.4672H28.1594C30.6416 46.4672 32.6539 47.8214 32.6539 49.4918C32.6539 49.5593 32.5874 49.6186 32.4909 49.6372L26.2363 50.8398C25.1143 51.0555 23.9129 50.9804 22.8692 50.6292L17.496 48.8212M32.6539 48.3928L43.9592 45.9773C45.9634 45.5431 48.1298 46.058 49.3852 47.2669C50.293 48.1411 49.9234 49.3928 48.6009 49.9235L30.101 57.3465C28.9243 57.8186 27.5362 57.9338 26.2419 57.6667L10.5 54.4183" stroke="#3F422F" stroke-width="2.3" stroke-linecap="round" stroke-linejoin="round"/>
<path d="M35.3332 8.83646C36.4539 7.71578 37.9962 7.12108 39.5791 7.19922L49.6656 7.69709C52.5481 7.83937 54.853 10.1442 54.9953 13.0267L55.4932 23.1133C55.5713 24.6962 54.9766 26.2384 53.8559 27.3591L40.2148 41.0003C37.292 43.9231 32.5532 43.9231 29.6304 41.0003L21.6921 33.062C18.7693 30.1392 18.7693 25.4004 21.6921 22.4776L35.3332 8.83646Z" stroke="#3F422F" stroke-width="2.2"/>
</svg>
