<svg width="66" height="65" viewBox="0 0 66 65" fill="none" xmlns="http://www.w3.org/2000/svg">
<path d="M37.3821 12.3C37.388 12.3 37.394 12.3 37.4 12.3C39.3882 12.3 41 13.9118 41 15.9C41 17.8882 39.3882 19.5 37.4 19.5H29C26.7909 19.5 25 17.7091 25 15.5C25 13.4203 26.5872 11.7113 28.6163 11.5182M37.3821 12.3C37.3939 12.1683 37.4 12.0349 37.4 11.9C37.4 9.46995 35.4301 7.5 33 7.5C30.6986 7.5 28.8099 9.2669 28.6163 11.5182M37.3821 12.3C37.3003 13.2076 36.9429 14.0357 36.3943 14.7M28.6163 11.5182C28.7426 11.5061 28.8706 11.5 29 11.5C29.9007 11.5 30.7318 11.7977 31.4004 12.3" stroke="#3F422F" stroke-width="2.2" stroke-linecap="round" stroke-linejoin="round"/>
<path d="M28.2 21.8999H29.8" stroke="#3F422F" stroke-width="2.2" stroke-linecap="round"/>
<path d="M32.2 21.8999H33.8" stroke="#3F422F" stroke-width="2.2" stroke-linecap="round"/>
<path d="M36.2 21.8999H37.8" stroke="#3F422F" stroke-width="2.2" stroke-linecap="round"/>
<path d="M27.6666 22.8999L14.3333 52.8999M38.3333 22.8999L51.6666 52.8999" stroke="#3F422F" stroke-width="2.2" stroke-linecap="round" stroke-linejoin="round"/>
<path d="M26 28.8999C27.6589 31.9241 30.3997 33.8999 33.5 33.8999C36.6003 33.8999 39.3411 31.9241 41 28.8999" stroke="#3F422F" stroke-width="2.2" stroke-linecap="round"/>
</svg>
