<svg width="66" height="65" viewBox="0 0 66 65" fill="none" xmlns="http://www.w3.org/2000/svg">
<circle cx="21" cy="32.5" r="15" stroke="#3F422F" stroke-width="2.2" stroke-linecap="round" stroke-linejoin="round"/>
<path d="M24 23.1069C24 23.1069 22.3274 23.8571 21.1525 23.2848C19.7197 22.5868 18.2986 19.6693 21.1371 17.5" stroke="#3F422F" stroke-width="2.2" stroke-linecap="round" stroke-linejoin="round"/>
<path d="M15.0135 28H15M27 28H26.9865" stroke="#3F422F" stroke-width="2.2" stroke-linecap="round" stroke-linejoin="round"/>
<path d="M15 37C16.3682 38.8217 18.5465 40 21 40C23.4535 40 25.6318 38.8217 27 37" stroke="#3F422F" stroke-width="2.2" stroke-linecap="round" stroke-linejoin="round"/>
<path d="M58.3333 30.25C58.3333 30.25 60 34 60 38.875C60 40.6317 59.7836 42.2424 59.5067 43.5841C59.1587 45.2705 58.9847 46.1138 58.0584 46.8069C57.132 47.5 56.0279 47.5 53.8198 47.5H46.1802C43.9721 47.5 42.868 47.5 41.9416 46.8069C41.0153 46.1138 40.8413 45.2705 40.4933 43.5841C40.2164 42.2424 40 40.6317 40 38.875C40 34 41.6667 30.25 41.6667 30.25" stroke="#3F422F" stroke-width="2.2" stroke-linecap="round" stroke-linejoin="round"/>
<path d="M45.71 25.4603L45.436 24.395H45.436L45.71 25.4603ZM44.5834 25.75L44.8574 26.8153H44.8574L44.5834 25.75ZM41.6667 30.25H40.5667C40.5667 30.8575 41.0592 31.35 41.6667 31.35V30.25ZM58.3334 30.25V31.35C58.9409 31.35 59.4334 30.8575 59.4334 30.25H58.3334ZM55.4167 25.75L55.6907 24.6847H55.6907L55.4167 25.75ZM54.2902 25.4603L54.0162 26.5257L54.2902 25.4603ZM53.0127 21.7856L52.0399 21.2722V21.2722L53.0127 21.7856ZM46.9875 21.7856L46.0146 22.299L46.9875 21.7856ZM47.7667 20.5C47.7667 19.5568 48.6548 18.6 50.0001 18.6V16.4C47.6635 16.4 45.5667 18.1295 45.5667 20.5H47.7667ZM50.0001 18.6C51.3454 18.6 52.2334 19.5568 52.2334 20.5H54.4334C54.4334 18.1295 52.3367 16.4 50.0001 16.4V18.6ZM45.436 24.395L44.3095 24.6847L44.8574 26.8153L45.9839 26.5257L45.436 24.395ZM40.5667 29.23V30.25H42.7667V29.23H40.5667ZM41.6667 31.35H58.3334V29.15H41.6667V31.35ZM59.4334 30.25V29.23H57.2334V30.25H59.4334ZM55.6907 24.6847L54.5641 24.395L54.0162 26.5257L55.1428 26.8153L55.6907 24.6847ZM52.2334 20.5C52.2334 20.7735 52.1657 21.0338 52.0399 21.2722L53.9855 22.299C54.271 21.758 54.4334 21.1467 54.4334 20.5H52.2334ZM47.9603 21.2722C47.8345 21.0338 47.7667 20.7735 47.7667 20.5H45.5667C45.5667 21.1467 45.7291 21.758 46.0146 22.299L47.9603 21.2722ZM48.6001 23.3245C48.6001 22.4705 48.2014 21.729 47.9603 21.2722L46.0146 22.299C46.2896 22.8201 46.4001 23.0957 46.4001 23.3245H48.6001ZM59.4334 29.23C59.4334 27.0433 57.8333 25.2356 55.6907 24.6847L55.1428 26.8153C56.453 27.1522 57.2334 28.1849 57.2334 29.23H59.4334ZM53.6001 23.3245C53.6001 23.0957 53.7105 22.8201 53.9855 22.299L52.0399 21.2722C51.7988 21.729 51.4001 22.4705 51.4001 23.3245H53.6001ZM44.3095 24.6847C42.1668 25.2356 40.5667 27.0433 40.5667 29.23H42.7667C42.7667 28.1849 43.5472 27.1522 44.8574 26.8153L44.3095 24.6847ZM54.5641 24.395C53.9208 24.2295 53.6001 23.7454 53.6001 23.3245H51.4001C51.4001 24.887 52.5404 26.1462 54.0162 26.5257L54.5641 24.395ZM45.9839 26.5257C47.4597 26.1462 48.6001 24.887 48.6001 23.3245H46.4001C46.4001 23.7454 46.0794 24.2295 45.436 24.395L45.9839 26.5257Z" fill="#3F422F"/>
<path d="M55 35.5H59.1667M55 41.5H59.1667" stroke="#3F422F" stroke-width="2.2" stroke-linecap="round" stroke-linejoin="round"/>
</svg>
