<svg width="66" height="65" viewBox="0 0 66 65" fill="none" xmlns="http://www.w3.org/2000/svg">
<path d="M8 42.9608C8 42.9608 12.4883 41.0264 20.5 41.0264C33 41.0264 43 48.7632 58 48.7632" stroke="#3F422F" stroke-width="2.3" stroke-linecap="round" stroke-linejoin="round"/>
<path d="M8 56.5H58" stroke="#3F422F" stroke-width="2.3" stroke-linecap="round" stroke-linejoin="round"/>
<path d="M34.4851 10.6661C27.3709 12.7707 22.7468 20.0138 23.0107 27.8095C23.0656 29.4286 23.093 30.2382 23.7637 30.5962C24.4343 30.9542 25.1305 30.4468 26.5227 29.4319L29.6266 27.1693C30.0928 26.8294 30.6462 26.6657 31.2038 26.7027L38.4943 27.1858L44.5893 22.7428C45.0554 22.403 45.6088 22.2393 46.1664 22.2762L49.9698 22.5283C51.6017 22.6364 52.4177 22.6905 52.8228 22.0424C53.2279 21.3943 52.8985 20.6936 52.2398 19.2922C48.9639 12.3225 41.6382 8.54996 34.4851 10.6661Z" stroke="#3F422F" stroke-width="2.3" stroke-linecap="round" stroke-linejoin="round"/>
<path d="M39.25 26.8421L44.25 46.1842M33.7143 10.0789L33 7.5" stroke="#3F422F" stroke-width="2.3" stroke-linecap="round" stroke-linejoin="round"/>
</svg>
