<svg width="66" height="65" viewBox="0 0 66 65" fill="none" xmlns="http://www.w3.org/2000/svg">
<path d="M47.6631 11.3682L49.3303 14.7301C49.5577 15.1981 50.1639 15.647 50.6754 15.7329L53.6972 16.2391C55.6296 16.5639 56.0843 17.9774 54.6918 19.3718L52.3426 21.7405C51.9448 22.1416 51.7269 22.9152 51.85 23.4692L52.5226 26.4013C53.0531 28.7222 51.8311 29.62 49.7945 28.407L46.9622 26.7165C46.4506 26.4109 45.6076 26.4109 45.0866 26.7165L42.2543 28.407C40.2271 29.62 38.9957 28.7126 39.5261 26.4013L40.1987 23.4692C40.3218 22.9152 40.104 22.1416 39.7061 21.7405L37.3569 19.3718C35.9739 17.9774 36.4191 16.5639 38.3515 16.2391L41.3733 15.7329C41.8753 15.647 42.4816 15.1981 42.7089 14.7301L44.3761 11.3682C45.2855 9.54394 46.7632 9.54394 47.6631 11.3682Z" stroke="#3F422F" stroke-width="2.2" stroke-linecap="round" stroke-linejoin="round"/>
<path d="M10.5 32.0379C10.5 44.7195 20.7805 55 33.4621 55C43.897 55 52.7062 48.0395 55.5 38.5081C52.1347 40.953 47.9936 42.3951 43.5157 42.3951C32.2431 42.3951 23.1049 33.2569 23.1049 21.9843C23.1049 17.5064 24.547 13.3653 26.9919 10C17.4605 12.7938 10.5 21.603 10.5 32.0379Z" stroke="#3F422F" stroke-width="2.2" stroke-linejoin="round"/>
</svg>
