<svg width="66" height="65" viewBox="0 0 66 65" fill="none" xmlns="http://www.w3.org/2000/svg">
<path d="M40.4695 21.7207C39.0561 24.2227 36.4845 25.896 33.5464 25.896C29.0856 25.896 25.4695 22.0388 25.4695 17.2806C25.4695 14.1467 27.0382 11.4036 29.3838 9.896" stroke="#3F422F" stroke-width="2.2" stroke-linecap="round"/>
<path d="M37.9695 12.5625H37.9919" stroke="#3F422F" stroke-width="4" stroke-linecap="round" stroke-linejoin="round"/>
<path d="M32.9148 49.312L35.0822 44.5427C35.3484 43.957 35.7166 43.4272 36.1575 42.9954L39.5797 39.6442C40.0206 39.2124 40.3887 38.6826 40.6549 38.0968L41.5986 36.0204C42.5112 34.0122 44.5114 32.957 46.066 33.6635C46.1289 33.6921 46.1596 33.771 46.1414 33.8569L44.961 39.4257C44.7493 40.4247 44.2376 41.3649 43.527 42.0608L39.8687 45.6433M45.0432 33.1987L46.9518 23.0305C47.2845 21.2254 48.5603 19.6904 50.1471 19.1861C51.2944 18.8214 52.3235 19.6499 52.3311 20.9443L52.4378 39.0512C52.4446 40.2028 52.0414 41.3746 51.317 42.3088L42.5057 53.6707" stroke="#3F422F" stroke-width="2.3" stroke-linecap="round" stroke-linejoin="round"/>
<path d="M33.0854 49.312L30.918 44.5427C30.6518 43.957 30.2837 43.4272 29.8427 42.9954L26.4206 39.6442C25.9797 39.2124 25.6115 38.6826 25.3453 38.0968L24.4017 36.0204C23.489 34.0122 21.4889 32.957 19.9342 33.6635C19.8714 33.6921 19.8406 33.771 19.8588 33.8569L21.0392 39.4257C21.251 40.4247 21.7626 41.3649 22.4732 42.0608L26.1315 45.6433M20.957 33.1987L19.0485 23.0305C18.7158 21.2254 17.44 19.6904 15.8532 19.1861C14.7059 18.8214 13.6768 19.6499 13.6691 20.9443L13.5624 39.0512C13.5556 40.2028 13.9588 41.3746 14.6832 42.3088L23.4945 53.6707" stroke="#3F422F" stroke-width="2.3" stroke-linecap="round" stroke-linejoin="round"/>
</svg>
