<svg width="66" height="65" viewBox="0 0 66 65" fill="none" xmlns="http://www.w3.org/2000/svg">
<path d="M58 54.4999H55.5C51.8716 54.4999 48.6949 52.1141 48 48.9443C47.3051 52.1141 44.1284 54.4999 40.5 54.4999C36.8716 54.4999 33.6949 52.1141 33 48.9443C32.3051 52.1141 29.1284 54.4999 25.5 54.4999C21.8716 54.4999 18.6949 52.1141 18 48.9443C17.3051 52.1141 14.1284 54.4999 10.5 54.4999H8" stroke="#3F422F" stroke-width="2.2" stroke-linecap="round" stroke-linejoin="round"/>
<path d="M49 10.5L48.2936 10.7271C44.7735 11.8585 43.0134 12.4243 42.0067 13.7711C41 15.118 41 16.907 41 20.485L41 46.5" stroke="#3F422F" stroke-width="2.2" stroke-linecap="round" stroke-linejoin="round"/>
<path d="M29 10.5L28.2936 10.7271C24.7735 11.8585 23.0134 12.4243 22.0067 13.7711C21 15.118 21 16.907 21 20.485L21 46.5" stroke="#3F422F" stroke-width="2.2" stroke-linecap="round" stroke-linejoin="round"/>
<path d="M21 20.5H41M21 31H41M21 41.5H41" stroke="#3F422F" stroke-width="2.2" stroke-linecap="round" stroke-linejoin="round"/>
</svg>
