<svg width="66" height="65" viewBox="0 0 66 65" fill="none" xmlns="http://www.w3.org/2000/svg">
<path d="M37.5668 20.6668C37.5668 18.2977 36.9971 16.2064 36.1333 14.7446C35.255 13.2582 34.1994 12.6002 33.2502 12.6002C32.3009 12.6002 31.2453 13.2582 30.367 14.7446C29.5032 16.2064 28.9335 18.2977 28.9335 20.6668C28.9335 23.036 29.5032 25.1272 30.367 26.589C31.2453 28.0754 32.3009 28.7335 33.2502 28.7335C34.1994 28.7335 35.255 28.0754 36.1333 26.589C36.9971 25.1272 37.5668 23.036 37.5668 20.6668Z" stroke="#3F422F" stroke-width="2.2"/>
<path d="M22.3959 48.2464C23.1303 50.2746 25.2206 51.6665 27.4945 51.6665C30.1638 51.6665 32.4801 49.6781 32.8332 47.2257C33.1721 49.6781 35.5025 51.6665 38.1718 51.6665C40.4457 51.6665 42.536 50.2746 43.2704 48.2464C44.711 44.2828 41.9852 40.5976 38.9063 38.1452C37.9459 37.3763 33.61 33.9297 32.8897 33.3729C32.8755 33.3597 32.8473 33.3332 32.8332 33.3332C32.8332 33.3332 32.7908 33.3597 32.7767 33.3729C32.0564 33.943 27.7205 37.3896 26.7601 38.1452C23.6812 40.5976 20.9553 44.2828 22.3959 48.2464Z" stroke="#3F422F" stroke-width="2.2" stroke-linecap="round" stroke-linejoin="round"/>
<path d="M50.6121 28.4341C51.349 26.8186 51.5694 25.2083 51.382 23.9369C51.1927 22.6525 50.6248 21.8634 49.9261 21.5447C49.2275 21.226 48.2593 21.3144 47.1652 22.0134C46.0822 22.7053 45.0107 23.9273 44.2738 25.5428C43.5369 27.1582 43.3165 28.7685 43.5039 30.0399C43.6932 31.3243 44.2611 32.1134 44.9597 32.4321C45.6584 32.7508 46.6266 32.6624 47.7206 31.9634C48.8036 31.2715 49.8752 30.0495 50.6121 28.4341Z" stroke="#3F422F" stroke-width="2.2"/>
<path d="M22.2789 25.4009C23.0158 27.0164 23.2362 28.6266 23.0488 29.8981C22.8595 31.1824 22.2915 31.9716 21.5929 32.2903C20.8942 32.6089 19.926 32.5205 18.832 31.8216C17.749 31.1296 16.6774 29.9077 15.9405 28.2922C15.2036 26.6767 14.9832 25.0665 15.1706 23.795C15.3599 22.5107 15.9278 21.7215 16.6265 21.4028C17.3251 21.0841 18.2934 21.1726 19.3874 21.8715C20.4704 22.5634 21.542 23.7854 22.2789 25.4009Z" stroke="#3F422F" stroke-width="2.2"/>
<circle cx="33" cy="32.5" r="23.9" stroke="#3F422F" stroke-width="2.2"/>
</svg>
