<svg width="66" height="65" viewBox="0 0 66 65" fill="none" xmlns="http://www.w3.org/2000/svg">
<ellipse cx="45.5" cy="48.4999" rx="5" ry="5.33341" stroke="#3F422F" stroke-width="2.3"/>
<ellipse cx="20.5" cy="48.4999" rx="5" ry="5.33341" stroke="#3F422F" stroke-width="2.3"/>
<path d="M8 21.8333V35.0255C8 41.3776 8 44.5537 9.83058 46.527C11.0478 47.8391 12.7582 48.2788 15.5 48.4261M34.0676 11.1665C36.3509 11.9662 38.141 13.896 38.8829 16.3573C39.25 17.5752 39.25 19.08 39.25 22.0897C39.25 24.0961 39.25 25.0993 39.4947 25.9112C39.9893 27.5521 41.1827 28.8386 42.7049 29.3718C43.4581 29.6356 44.3887 29.6356 46.25 29.6356H58V35.0255C58 41.3776 58 44.5537 56.1694 46.527C54.9522 47.8391 53.2418 48.2788 50.5 48.4261M25.5 48.5003H40.5" stroke="#3F422F" stroke-width="2.3" stroke-linecap="round" stroke-linejoin="round"/>
<path d="M16 16.833H31M16 25.458H26" stroke="#3F422F" stroke-width="2.3" stroke-linecap="round" stroke-linejoin="round"/>
<path d="M39.25 16.499H43.8031C47.4414 16.499 49.2606 16.499 50.7411 17.4423C52.2215 18.3855 53.084 20.094 54.8089 23.5111L58 29.8325" stroke="#3F422F" stroke-width="2.3" stroke-linecap="round" stroke-linejoin="round"/>
</svg>
