<svg width="66" height="65" viewBox="0 0 66 65" fill="none" xmlns="http://www.w3.org/2000/svg">
<path d="M52.4286 56.4998L13.5714 56.4998C12.5086 56.4998 11.9772 56.4998 11.5412 56.3863C10.358 56.078 9.43386 55.1795 9.11683 54.0292C9 53.6053 9 53.0887 9 52.0554C9 49.9888 9 48.9555 9.23365 48.1077C9.86771 45.8071 11.716 44.0101 14.0824 43.3937C14.9544 43.1665 16.0172 43.1665 18.1429 43.1665H47.8571C49.9828 43.1665 51.0456 43.1665 51.9176 43.3937C54.284 44.0101 56.1323 45.8071 56.7663 48.1077C57 48.9555 57 49.9888 57 52.0554C57 53.0887 57 53.6053 56.8832 54.0292C56.5661 55.1795 55.642 56.078 54.4588 56.3863C54.0228 56.4998 53.4914 56.4998 52.4286 56.4998Z" stroke="#3F422F" stroke-width="2.2" stroke-miterlimit="10" stroke-linecap="round" stroke-linejoin="round"/>
<path d="M40.4854 43.3417C40.582 43.9415 41.1466 44.3493 41.7464 44.2527C42.3462 44.156 42.754 43.5914 42.6573 42.9916L40.4854 43.3417ZM23.3425 42.9916C23.2459 43.5914 23.6537 44.156 24.2535 44.2527C24.8533 44.3493 25.4178 43.9415 25.5145 43.3417L23.3425 42.9916ZM39.9729 33.2485L38.8816 33.3866C38.8832 33.3989 38.885 33.4112 38.8869 33.4235L39.9729 33.2485ZM43.6577 26.1517L42.8902 25.3638L43.6577 26.1517ZM26.0269 33.2484L27.1129 33.4235C27.1149 33.4112 27.1167 33.3989 27.1182 33.3866L26.0269 33.2484ZM22.3421 26.1517L23.1097 25.3638H23.1097L22.3421 26.1517ZM20.3856 19.3333C20.3856 14.1854 25.7773 9.6 32.9999 9.6V7.4C25.0741 7.4 18.1856 12.5151 18.1856 19.3333H20.3856ZM32.9999 9.6C40.2225 9.6 45.6142 14.1854 45.6142 19.3333H47.8142C47.8142 12.5151 40.9257 7.4 32.9999 7.4V9.6ZM42.6573 42.9916L41.0589 33.0734L38.8869 33.4235L40.4854 43.3417L42.6573 42.9916ZM45.6142 19.3333C45.6142 21.5751 44.6238 23.675 42.8902 25.3638L44.4253 26.9397C46.5143 24.9047 47.8142 22.2593 47.8142 19.3333H45.6142ZM25.5145 43.3417L27.1129 33.4235L24.941 33.0734L23.3425 42.9916L25.5145 43.3417ZM23.1097 25.3638C21.3761 23.675 20.3856 21.5751 20.3856 19.3333H18.1856C18.1856 22.2593 19.4856 24.9047 21.5746 26.9397L23.1097 25.3638ZM27.1182 33.3866C27.3248 31.755 26.8231 30.247 26.0464 28.9264C25.2733 27.6119 24.1879 26.4142 23.1097 25.3638L21.5746 26.9397C22.6004 27.939 23.5236 28.9767 24.15 30.0417C24.7728 31.1006 25.0615 32.1161 24.9357 33.1103L27.1182 33.3866ZM41.0642 33.1103C40.9384 32.1161 41.227 31.1006 41.8498 30.0417C42.4762 28.9767 43.3995 27.939 44.4253 26.9397L42.8902 25.3638C41.8119 26.4142 40.7266 27.6119 39.9535 28.9264C39.1768 30.247 38.6751 31.755 38.8816 33.3866L41.0642 33.1103Z" fill="#3F422F"/>
<path d="M39.8571 35.1665H26.1428" stroke="#3F422F" stroke-width="2.2" stroke-linecap="round"/>
<path d="M34.123 15.3665L35.2668 17.4957C35.4228 17.7921 35.8388 18.0764 36.1897 18.1309L38.263 18.4515C39.5889 18.6571 39.9008 19.5524 38.9454 20.4355L37.3336 21.9356C37.0606 22.1897 36.9112 22.6796 36.9956 23.0305L37.4571 24.8875C37.8211 26.3574 36.9826 26.926 35.5853 26.1578L33.642 25.0871C33.2911 24.8935 32.7126 24.8935 32.3552 25.0871L30.4119 26.1578C29.021 26.926 28.1761 26.3513 28.5401 24.8875L29.0015 23.0305C29.086 22.6796 28.9365 22.1897 28.6636 21.9356L27.0517 20.4355C26.1028 19.5524 26.4083 18.6571 27.7342 18.4515L29.8074 18.1309C30.1519 18.0764 30.5679 17.7921 30.7238 17.4957L31.8677 15.3665C32.4916 14.2112 33.5055 14.2112 34.123 15.3665Z" stroke="#3F422F" stroke-width="2.2" stroke-linecap="round" stroke-linejoin="round"/>
</svg>
