<svg width="34" height="35" viewBox="0 0 34 35" fill="none" xmlns="http://www.w3.org/2000/svg">
<path d="M25.4615 7.9375H8.53846C8.13044 7.9375 7.73912 8.09959 7.4506 8.3881C7.16209 8.67662 7 9.06794 7 9.47596V22.5529C7 22.9609 7.16209 23.3522 7.4506 23.6407C7.73912 23.9293 8.13044 24.0913 8.53846 24.0913H11.6154V27.9375L16.4154 24.0913H25.4615C25.8696 24.0913 26.2609 23.9293 26.5494 23.6407C26.8379 23.3522 27 22.9609 27 22.5529V9.47596C27 9.06794 26.8379 8.67662 26.5494 8.3881C26.2609 8.09959 25.8696 7.9375 25.4615 7.9375Z" stroke="#3F422F" stroke-width="2" stroke-linecap="round" stroke-linejoin="round"/>
</svg>
