<svg width="45" height="64" viewBox="0 0 45 64" fill="none" xmlns="http://www.w3.org/2000/svg">
<path d="M22.5 1.12354C26.9184 1.12354 30.5 5.74987 30.5 9.5001L30.5 18.747C30.5 23.3733 26.9184 27.1235 22.5 27.1235C18.0816 27.1235 14.5 22.4972 14.5 18.747L14.5 9.5001C14.5 4.87377 18.0823 1.12354 22.5 1.12354Z" stroke="white" stroke-width="1.5"/>
<path d="M22.6874 4.95532C23.4252 4.95532 24.0232 5.71863 24.0232 6.33733L24.0232 9.25708C24.0232 10.0204 23.4252 10.6391 22.6874 10.6391C21.9496 10.6391 21.3516 9.87579 21.3516 9.25708L21.3516 6.33733C21.3516 5.57403 21.9496 4.95532 22.6874 4.95532Z" stroke="white" stroke-width="1.5"/>
<path d="M28.3316 17.0257C28.1643 21.317 26.5086 23.0612 23.1912 24.2208M22.788 10.9784L22.788 12.6461M22.788 1.12354L22.788 4.89209M14.9766 14.0531C14.9766 14.0531 19.5284 12.667 22.7168 12.6454C25.9052 12.6239 30.4986 14.0531 30.4986 14.0531" stroke="white" stroke-width="1.5" stroke-linecap="round"/>
<path d="M27.3271 41.2959L22.4906 46.1235" stroke="white" stroke-width="1.5" stroke-miterlimit="10" stroke-linecap="round"/>
<path d="M22.4893 46.1235L17.6706 41.2959" stroke="white" stroke-width="1.5" stroke-miterlimit="10" stroke-linecap="round"/>
<path d="M27.3291 36.1235L22.4926 40.9511" stroke="white" stroke-width="1.5" stroke-miterlimit="10" stroke-linecap="round"/>
<path d="M22.4932 40.9511L17.6745 36.1235" stroke="white" stroke-width="1.5" stroke-miterlimit="10" stroke-linecap="round"/>
<path d="M5.40234 56.9712C5.33203 56.2446 4.71094 55.8228 3.79688 55.8228C2.83594 55.8228 2.25 56.2915 2.25 56.9243C2.25 57.6392 3 57.9321 3.70312 58.0962L4.5 58.3071C5.76562 58.6001 6.98438 59.2681 6.98438 60.7446C6.98438 62.2329 5.8125 63.2524 3.77344 63.2524C1.79297 63.2524 0.550781 62.3032 0.480469 60.6274H1.98047C2.05078 61.5181 2.80078 61.9517 3.76172 61.9517C4.76953 61.9517 5.46094 61.4595 5.46094 60.7329C5.46094 60.0649 4.83984 59.7837 3.92578 59.5493L2.96484 59.3032C1.57031 58.9399 0.703125 58.2368 0.703125 57.0181C0.703125 55.5181 2.03906 54.522 3.82031 54.522C5.625 54.522 6.84375 55.5415 6.86719 56.9712H5.40234ZM13.7288 57.4985C13.553 56.479 12.7327 55.8931 11.7014 55.8931C10.3069 55.8931 9.33422 56.9595 9.33422 58.8813C9.33422 60.8267 10.3186 61.8696 11.7014 61.8696C12.7092 61.8696 13.5295 61.3071 13.7288 60.311H15.2639C15.0295 61.9399 13.6936 63.2407 11.678 63.2407C9.43969 63.2407 7.79906 61.6118 7.79906 58.8813C7.79906 56.1392 9.46313 54.522 11.678 54.522C13.553 54.522 15.0061 55.6118 15.2639 57.4985H13.7288ZM16.3364 63.1235V54.6392H19.5239C21.4692 54.6392 22.5122 55.729 22.5122 57.3462C22.5122 58.5005 21.9848 59.356 20.9888 59.7603L22.8169 63.1235H21.1177L19.4536 60.0181H17.8598V63.1235H16.3364ZM17.8598 58.7407H19.2895C20.438 58.7407 20.9536 58.2485 20.9536 57.3462C20.9536 56.4438 20.438 55.9165 19.2895 55.9165H17.8598V58.7407ZM31.155 58.8813C31.155 61.6235 29.4909 63.2407 27.2644 63.2407C25.0378 63.2407 23.3738 61.6118 23.3738 58.8813C23.3738 56.1392 25.0378 54.522 27.2644 54.522C29.4909 54.522 31.155 56.1392 31.155 58.8813ZM29.6198 58.8813C29.6198 56.9478 28.6472 55.8931 27.2644 55.8931C25.8816 55.8931 24.9089 56.9478 24.9089 58.8813C24.9089 60.8149 25.8816 61.8696 27.2644 61.8696C28.6472 61.8696 29.6198 60.8149 29.6198 58.8813ZM32.2744 63.1235V54.6392H33.7978V61.8345H37.5478V63.1235H32.2744ZM38.5266 63.1235V54.6392H40.05V61.8345H43.8V63.1235H38.5266Z" fill="white"/>
</svg>
