<svg width="20" height="21" viewBox="0 0 20 21" fill="none" xmlns="http://www.w3.org/2000/svg">
<path d="M9.12607 1.42712C9.45592 0.937671 10.1156 0.809988 10.6051 1.1292C10.7221 1.20368 10.8179 1.31008 10.903 1.42712L13.7971 5.77899C13.9248 5.98116 14.127 6.13012 14.3611 6.2046L19.2662 7.77936C19.8302 7.96024 20.1281 8.5561 19.9472 9.12003C19.9153 9.22644 19.8621 9.3222 19.7983 9.40732L16.67 13.7805C16.5317 13.9614 16.4678 14.1954 16.4678 14.4189L16.553 19.8348C16.5636 20.42 16.0954 20.9094 15.5102 20.9201C15.3825 20.9201 15.2549 20.8988 15.1272 20.8562L10.3603 19.1325C10.1263 19.0474 9.87089 19.0474 9.6368 19.1325L4.86997 20.8562C4.31667 21.0584 3.71017 20.7711 3.50801 20.2178C3.46545 20.1008 3.44417 19.9625 3.44417 19.8348L3.52929 14.4189C3.52929 14.1954 3.46545 13.9614 3.32712 13.7805L0.198894 9.40732C-0.141595 8.92851 -0.0351967 8.26881 0.443615 7.91768C0.528737 7.85384 0.635139 7.80064 0.741541 7.76872L5.6467 6.19396C5.88079 6.11948 6.07231 5.97052 6.21063 5.76835L9.12607 1.42712Z" fill="#D68B30"/>
</svg>
