<svg width="20" height="20" viewBox="0 0 20 20" fill="none" xmlns="http://www.w3.org/2000/svg">
<path d="M19 15V10" stroke="#3F422F" stroke-width="1.2" stroke-linejoin="round"/>
<path d="M6.73251 14.9999H9.54702L5.27351 5L1 14.9999H3.81452L5.27351 11.5861L6.73251 14.9999Z" stroke="#3F422F" stroke-width="1.2" stroke-linejoin="round"/>
<path d="M3.81595 15H6.73394" stroke="#3F422F" stroke-width="1.2" stroke-linejoin="round"/>
<path d="M1 15V10" stroke="#3F422F" stroke-width="1.2" stroke-linejoin="round"/>
<path d="M5.27402 5L6.92444 8.85502L8.29548 7.46322L9.6717 8.85502L11.0479 7.46322L12.4241 8.85502L13.7952 7.46322L15.1714 8.85502L15.9992 8.01994L14.7058 5H5.27402Z" stroke="#3F422F" stroke-width="1.2" stroke-linejoin="round"/>
<path d="M13.7954 7.46313L12.4244 8.85493L11.0482 7.46313L9.67194 8.85493L8.29572 7.46313L6.92468 8.85493L9.54777 14.9999H18.9795L15.9994 8.01985L15.1716 8.85493L13.7954 7.46313Z" stroke="#3F422F" stroke-width="1.2" stroke-linejoin="round"/>
<path d="M9.54608 15V10" stroke="#3F422F" stroke-width="1.2" stroke-linejoin="round"/>
</svg>
