<svg width="36" height="36" viewBox="0 0 36 36" fill="none" xmlns="http://www.w3.org/2000/svg">
<path d="M32.5468 11.0104C31.972 8.63957 30.8998 7.73124 28.9267 7.3999C27.7937 7.2228 22.3331 7 18 7C13.6669 7.00571 8.20634 7.22851 7.07332 7.40561C5.10022 7.73124 4.028 8.64529 3.45873 11.0104C3.26529 11.7988 3 16.1576 3 17.82V18.1857C3 19.8481 3.26529 24.2012 3.45873 24.9953C4.028 27.3604 5.10022 28.2745 7.07332 28.6001C8.20634 28.7772 13.6724 28.9943 18.0111 28.9943L17.9889 29C22.3276 29 27.7881 28.7772 28.9267 28.6001C30.8998 28.2745 31.972 27.3604 32.5468 24.9953C32.7347 24.2012 33 19.8481 33 18.1857V17.82C33 16.1576 32.7347 11.7988 32.5468 11.0104ZM14.402 21.9733V14.0267L21.5925 17.9115L14.402 21.9733Z" fill="#DDDDDD"/>
</svg>
