<svg width="228" height="228" viewBox="0 0 228 228" fill="none" xmlns="http://www.w3.org/2000/svg">
<rect width="228" height="228" fill="white"/>
<path d="M200.807 122.998H210.108V126.887H196.403V104.209H200.807V122.998Z" fill="#3F422F"/>
<path d="M175.018 127.097C173.221 127.097 171.657 126.708 170.324 125.93C169.011 125.132 167.996 124.025 167.282 122.609C166.586 121.193 166.239 119.567 166.239 117.733V104.209H170.643V117.673C170.643 119.308 171 120.585 171.715 121.502C172.429 122.4 173.53 122.849 175.018 122.849C176.505 122.849 177.606 122.4 178.32 121.502C179.035 120.585 179.392 119.308 179.392 117.673V104.209H183.796V117.733C183.796 119.567 183.439 121.193 182.724 122.609C182.029 124.025 181.015 125.132 179.682 125.93C178.369 126.708 176.814 127.097 175.018 127.097Z" fill="#3F422F"/>
<path d="M141.864 119.796C143.081 122.13 144.52 123.297 146.181 123.297C147.436 123.297 148.354 123.048 148.933 122.549C149.532 122.03 149.832 121.332 149.832 120.455C149.832 119.936 149.658 119.497 149.31 119.138C148.982 118.779 148.557 118.48 148.035 118.241C147.533 118.001 146.828 117.722 145.92 117.403C144.529 116.884 143.39 116.396 142.501 115.937C141.632 115.458 140.879 114.77 140.241 113.873C139.604 112.955 139.285 111.778 139.285 110.342C139.285 109.046 139.594 107.919 140.213 106.962C140.831 106.004 141.69 105.266 142.791 104.748C143.911 104.229 145.196 103.97 146.645 103.97C147.514 103.97 148.412 104.169 149.339 104.568C150.285 104.947 151.155 105.555 151.947 106.393C152.758 107.211 153.395 108.248 153.859 109.505L150.005 110.971C149.542 109.794 149.011 108.976 148.412 108.517C147.832 108.059 147.243 107.829 146.645 107.829C145.679 107.829 144.935 108.069 144.414 108.547C143.911 109.026 143.66 109.624 143.66 110.342C143.66 110.861 143.834 111.31 144.182 111.689C144.529 112.068 144.964 112.387 145.486 112.646C146.026 112.905 146.77 113.224 147.717 113.603C149.088 114.162 150.199 114.68 151.048 115.159C151.918 115.638 152.661 116.316 153.279 117.194C153.897 118.051 154.206 119.138 154.206 120.455C154.206 121.771 153.878 122.938 153.221 123.955C152.584 124.952 151.657 125.74 150.44 126.319C149.242 126.877 147.823 127.156 146.181 127.156C144.578 127.156 143.1 126.698 141.748 125.78C140.415 124.843 139.266 123.546 138.3 121.891L141.864 119.796Z" fill="#3F422F"/>
<path d="M116.261 123.177C118.328 123.177 119.96 122.499 121.157 121.143C122.374 119.767 122.983 117.902 122.983 115.548C122.983 113.195 122.374 111.34 121.157 109.983C119.96 108.607 118.328 107.919 116.261 107.919C114.194 107.919 112.552 108.607 111.335 109.983C110.138 111.34 109.539 113.195 109.539 115.548C109.539 117.902 110.138 119.767 111.335 121.143C112.552 122.499 114.194 123.177 116.261 123.177ZM116.261 103.97C118.405 103.97 120.317 104.468 121.998 105.466C123.697 106.443 125.02 107.809 125.967 109.564C126.913 111.32 127.386 113.314 127.386 115.548C127.386 117.782 126.913 119.777 125.967 121.532C125.02 123.287 123.697 124.663 121.998 125.66C120.317 126.638 118.405 127.126 116.261 127.126C114.117 127.126 112.195 126.638 110.495 125.66C108.815 124.663 107.501 123.287 106.555 121.532C105.608 119.777 105.135 117.782 105.135 115.548C105.135 113.314 105.608 111.32 106.555 109.564C107.501 107.809 108.815 106.443 110.495 105.466C112.195 104.468 114.117 103.97 116.261 103.97Z" fill="#3F422F"/>
<path d="M81.5876 119.797C82.8045 122.131 84.2435 123.298 85.9046 123.298C87.1601 123.298 88.0775 123.049 88.657 122.55C89.2558 122.031 89.5552 121.333 89.5552 120.456C89.5552 119.937 89.3813 119.498 89.0337 119.139C88.7053 118.78 88.2804 118.481 87.7588 118.242C87.2566 118.002 86.5516 117.723 85.6438 117.404C84.2531 116.885 83.1135 116.397 82.225 115.938C81.3558 115.459 80.6025 114.771 79.9651 113.874C79.3277 112.956 79.009 111.779 79.009 110.343C79.009 109.047 79.3181 107.92 79.9361 106.963C80.5542 106.005 81.4138 105.267 82.5147 104.749C83.635 104.23 84.9195 103.971 86.3681 103.971C87.2373 103.971 88.1355 104.17 89.0626 104.569C90.0091 104.948 90.8783 105.556 91.6702 106.394C92.4814 107.212 93.1188 108.249 93.5824 109.506L89.729 110.972C89.2654 109.795 88.7343 108.977 88.1355 108.518C87.556 108.06 86.9669 107.83 86.3681 107.83C85.4024 107.83 84.6587 108.07 84.1372 108.548C83.635 109.027 83.3839 109.625 83.3839 110.343C83.3839 110.862 83.5578 111.311 83.9054 111.69C84.2531 112.069 84.6877 112.388 85.2092 112.647C85.7501 112.906 86.4937 113.225 87.4401 113.604C88.8115 114.163 89.9222 114.681 90.772 115.16C91.6412 115.639 92.3849 116.317 93.003 117.195C93.621 118.052 93.9301 119.139 93.9301 120.456C93.9301 121.772 93.6017 122.939 92.945 123.956C92.3076 124.953 91.3805 125.741 90.1636 126.32C88.9661 126.878 87.5464 127.157 85.9046 127.157C84.3014 127.157 82.8238 126.699 81.4717 125.781C80.139 124.844 78.9897 123.547 78.0239 121.892L81.5876 119.797Z" fill="#3F422F"/>
<path fill-rule="evenodd" clip-rule="evenodd" d="M211 136H16V131.353H211V136Z" fill="#3F422F"/>
<path fill-rule="evenodd" clip-rule="evenodd" d="M37.6572 109.931L51.2346 131.883L47.4736 134.356L37.6554 118.481L27.8273 134.357L24.0674 131.883L37.6572 109.931Z" fill="#3F422F"/>
<path fill-rule="evenodd" clip-rule="evenodd" d="M49.3625 91L62.9248 112.952L59.1725 115.426L49.3642 99.5508L39.5658 115.426L35.8125 112.953L49.3625 91Z" fill="#3F422F"/>
<path fill-rule="evenodd" clip-rule="evenodd" d="M35.4277 134.583V127.669H39.8733V134.583H35.4277Z" fill="#3F422F"/>
<path fill-rule="evenodd" clip-rule="evenodd" d="M63.6537 116.519H49.4249V111.914H69.0372C69.9392 111.914 70.7523 112.475 71.0974 113.336C71.4426 114.196 71.2518 115.186 70.6141 115.845L55.5555 131.395H71.178V136H50.1719C49.27 136 48.4569 135.439 48.1117 134.579C47.7666 133.718 47.9573 132.728 48.5951 132.069L63.6537 116.519Z" fill="#3F422F"/>
</svg>
