<svg width="292" height="318" viewBox="0 0 292 318" fill="none" xmlns="http://www.w3.org/2000/svg">
<path d="M218.832 68.144C220.883 98.4373 228.533 127.523 235.641 157.18C237.161 163.516 238.702 169.908 241.697 175.794C243.9 180.118 246.884 184.132 248.512 188.662C249.879 192.452 250.248 196.476 250.107 200.463C249.847 208.071 247.579 215.858 242.196 221.716C233.449 231.224 218.257 233.788 204.67 232.403C194.556 231.374 184.409 228.36 176.813 222.24C171.083 217.626 167.111 211.496 163.899 205.198C158.115 193.875 154.501 181.662 153.253 169.243" fill="#3F2D26"/>
<path d="M116.421 12.5831C119.731 7.6512 125.526 4.14179 131.82 2.23267C138.125 0.32355 144.919 -0.116293 151.603 0.0240832C158.451 0.173818 165.353 0.931849 171.723 3.05621C179.764 5.74208 186.612 10.4681 192.982 15.4374C196.921 18.507 200.763 21.7356 203.574 25.6007C206.232 29.2505 207.882 33.3494 209.51 37.4016C213.319 46.8817 217.139 56.4367 218.821 66.3566C220.058 73.6468 220.112 81.04 220.156 88.4051C220.21 96.1539 220.264 103.949 218.658 111.577C215.663 125.876 218.354 141.355 218.506 155.87C218.539 158.996 218.571 162.131 219.136 165.219C219.787 168.766 221.132 172.191 222.478 175.588C224.312 180.23 226.146 184.881 227.969 189.523C230.617 196.252 233.308 203.392 231.474 210.308C229.814 216.559 224.54 221.819 218.148 225.244C211.756 228.669 204.323 230.429 196.889 231.542C180.991 233.91 164.517 233.489 148.825 230.298C140.024 228.51 131.495 225.871 122.998 223.241C118.548 221.866 114.066 220.471 109.986 218.422C100.632 213.696 94.1529 205.835 88.423 197.974C83.6807 191.479 79.2531 184.816 75.1401 178.012" fill="#3F2D26"/>
<path d="M93.0022 18.8628C74.5104 25.6102 67.2504 43.4006 63.5065 61.1067C59.7625 78.8129 58.1239 97.0431 57.9177 115.077C57.7332 130.715 55.8124 146.334 52.177 161.616C51.1677 165.846 50.0174 170.086 48.0315 174.026C45.8936 178.265 42.8008 182.121 41.1513 186.538C37.2771 196.898 42.0846 208.539 49.8763 216.906C53.1645 220.434 56.9518 223.56 60.7175 226.667C63.6258 229.063 66.545 231.468 69.8549 233.367C76.0731 236.942 83.3874 238.599 90.6257 239.787C106.47 242.389 122.704 243.007 138.733 241.612" fill="#3F2D26"/>
<path d="M137.192 9.83177C131.451 7.56703 119.015 4.34772 98.3631 12.0591C92.5899 14.2115 81.8247 25.5165 77.397 29.8494C70.4843 36.6156 69.3014 56.9889 69.1278 59.7496C66.7621 97.9601 76.6048 93.7582 82.4215 102.49C84.657 95.1339 84.8849 74.6202 87.3918 67.358C88.4335 64.3353 89.4862 61.2938 91.0489 58.505C93.5448 54.0503 97.2345 50.4193 100.881 46.8537C104.722 43.101 108.597 39.3108 113.1 36.391C115.965 34.5287 119.297 32.7693 120.48 29.5406" fill="#3F2D26"/>
<path d="M289.087 224.074C260.286 212.068 229.608 204.749 200.806 192.742C193.492 189.692 186.134 186.631 178.419 184.966C169.335 183.01 159.992 183.038 150.713 183.066C130.659 183.141 105.146 187.979 101.217 189.046C101.065 189.083 100.827 189.139 100.751 189.167C88.7918 194.371 13.2401 217.888 6.30561 229.502C3.50579 234.191 2.464 239.759 1.71521 245.215C0.554043 253.684 -0.021112 262.247 0.000591996 270.801C0.000591996 275.621 0.228485 280.553 1.9431 285.035C5.45916 294.272 14.5206 299.812 23.3541 303.593C46.8053 313.644 80.7722 316.161 106.112 317.331C149.368 319.325 193.601 317.556 234.382 302.404C239.103 300.654 253.211 298.67 257.041 295.311C261.415 291.493 264.28 286.168 267.047 280.983C274.112 267.741 281.176 254.499 288.241 241.256C290.943 236.184 293.656 229.849 290.748 224.907" fill="#DD6898"/>
<path d="M175.304 125.361C174.913 137.237 175.933 173.005 177.583 176.281C180.914 182.878 188.576 186.06 194.555 190.225C184.865 197.384 100.403 197.421 100.761 189.158C100.761 189.158 110.984 185.077 117.126 177.974C124.354 169.617 125.515 133.372 125.515 133.372L175.293 125.361H175.304Z" fill="#F1B7A0"/>
<path d="M191.854 87.9276C194.165 84.8112 197.855 83.1642 201.458 83.6414C205.06 84.1187 208.479 86.7016 210.334 90.3701C212.277 94.1977 212.472 98.9238 211.42 103.07C210.367 107.215 208.153 110.809 205.56 113.86C203.172 116.667 200.427 119.072 197.431 120.982C195.131 122.451 191.213 123.892 189.347 126.007" fill="#FCBFA8"/>
<path d="M85.6011 94.8717C82.823 92.3262 82.6494 91.3062 79.155 92.2046C75.6715 93.1123 68.9541 95.9199 67.7062 99.5041C66.3931 103.248 66.9465 107.599 68.6503 111.249C70.3541 114.899 73.1105 117.893 76.1599 120.345C78.9706 122.601 82.0742 124.444 85.3407 125.792C87.8475 126.831 92.3945 126.335 94.5866 128.019" fill="#FCBFA8"/>
<path d="M86.1873 53.9193C83.1487 65.0932 83.496 75.8086 85.7206 87.1323C87.0554 93.9453 83.8432 105.447 86.6322 111.895C91.4939 123.153 96.9416 134.767 105.222 144.247C113.502 153.727 124.983 161.026 138.158 163.039C143.627 163.871 149.357 163.694 154.566 161.981C159.688 160.297 164.072 157.227 168.38 154.204C173.492 150.601 178.701 145.098 182.293 140.223C186.677 134.271 190.182 128.74 191.495 121.693C195.858 98.2595 194.056 78.8876 190.074 57.9434C190.074 57.9434 180.947 23.0364 141.478 26.864C93.7728 31.4871 88.553 45.2159 86.1873 53.9286V53.9193Z" fill="#FCBFA8"/>
<path d="M119.872 94.8437C120.067 97.2395 118.559 99.289 116.497 99.4294C114.435 99.5697 112.601 97.7448 112.406 95.3491C112.21 92.9533 113.719 90.9038 115.781 90.7634C117.843 90.6231 119.677 92.448 119.872 94.8437Z" fill="#030201"/>
<path d="M164.029 91.8398C164.224 94.2356 162.716 96.2851 160.654 96.4254C158.592 96.5658 156.758 94.7409 156.562 92.3452C156.367 89.9494 157.876 87.8999 159.937 87.7595C161.999 87.6192 163.833 89.4441 164.029 91.8398Z" fill="#030201"/>
<path d="M135.89 113.954C135.629 113.972 135.358 113.888 135.152 113.71L130.919 109.873C130.746 109.714 130.431 109.424 130.355 108.975C130.247 108.338 130.692 107.88 130.898 107.655C133.231 105.203 134.544 101.703 134.587 97.7915C134.631 93.9639 133.513 90.2112 132.428 87.048C132.276 86.5988 132.547 86.1309 133.046 85.9905C133.546 85.8501 134.067 86.1028 134.218 86.5427C135.347 89.8275 136.508 93.7393 136.465 97.8009C136.421 102.115 134.946 106.008 132.319 108.76C132.319 108.76 132.298 108.778 132.287 108.788L136.476 112.503C136.845 112.83 136.845 113.373 136.476 113.701C136.313 113.851 136.096 113.935 135.89 113.944V113.954Z" fill="#CA9885"/>
<path d="M78.1567 97.5762C80.3488 96.7246 81.3146 97.9412 83.2463 99.4291C80.6635 100.037 78.1024 100.721 75.563 101.469C74.1631 101.881 72.5353 102.574 72.264 104.099C72.1555 104.698 72.2966 105.325 72.4268 105.924C72.6655 107 72.9802 108.179 73.8484 108.797C74.7383 109.433 75.8994 109.246 76.9304 109.031C78.5582 108.694 80.1968 108.366 81.8246 108.03C81.3363 109.237 80.2837 110.154 79.0791 110.416C78.721 110.5 78.3086 110.538 78.0698 110.837C77.8202 111.137 77.8419 111.595 77.9071 112.007C78.5365 116.34 82.0525 120.083 86.1003 120.72C83.0509 121.59 79.6759 120.458 77.1474 118.343C74.6189 116.228 72.85 113.223 71.5152 110.098C70.6579 108.076 68.8239 104.136 70.2781 102.143C71.461 100.515 76.4203 98.2406 78.1675 97.5575L78.1567 97.5762Z" fill="#E3A68D"/>
<path d="M203.215 88.6016C200.893 87.9933 196.455 89.9679 194.805 91.8302C197.464 92.1203 200.112 92.4853 202.76 92.9345C204.214 93.1778 205.939 93.6832 206.471 95.2835C206.677 95.9105 206.656 96.5937 206.623 97.2581C206.569 98.4466 206.471 99.7475 205.722 100.534C204.952 101.338 203.769 101.301 202.716 101.217C201.045 101.086 199.374 100.964 197.703 100.833C198.386 102.059 199.591 102.892 200.828 103.004C201.197 103.042 201.609 103.023 201.902 103.313C202.195 103.603 202.261 104.099 202.271 104.539C202.402 109.265 199.569 113.757 195.673 115.011C198.831 115.516 201.978 113.832 204.116 111.202C206.254 108.572 207.48 105.119 208.262 101.591C208.761 99.3076 209.889 94.8343 208.11 92.9064C206.656 91.3342 205.071 89.0695 203.226 88.5829L203.215 88.6016Z" fill="#E2AC96"/>
<path d="M113.86 116.574C114.099 119.428 109.801 122.049 104.256 122.423C98.7106 122.797 94.0334 120.795 93.7946 117.94C93.5559 115.086 97.8533 112.466 103.399 112.091C108.944 111.717 113.621 113.72 113.86 116.574Z" fill="#F7A1A1"/>
<path d="M180.936 109.396C181.175 112.25 176.878 114.871 171.332 115.245C165.787 115.619 161.11 113.616 160.871 110.762C160.632 107.908 164.929 105.287 170.475 104.913C176.02 104.539 180.697 106.542 180.936 109.396Z" fill="#F7A1A1"/>
<path d="M157.355 171.171C155.695 172.004 154.012 172.856 152.113 173.473C147.599 174.943 141.988 174.961 137.778 173.52C133.632 172.098 131.082 169.496 128.695 166.997C127.447 165.696 126.177 164.321 126.101 162.777C126.144 163.815 136.063 165.21 137.55 165.416C141.739 165.987 146.101 166.202 150.464 166.071C154.826 165.94 157.756 165.64 161.989 164.807C163.758 164.461 173.665 160.418 172.743 161.214C171.549 162.253 166.395 166.642 164.745 167.465C162.282 168.701 159.818 169.945 157.355 171.181V171.171Z" fill="#DFA993"/>
<path d="M152.612 81.2833C159.97 79.1215 167.903 78.5787 175.543 79.7298" stroke="#594138" stroke-linecap="round" stroke-linejoin="round"/>
<path d="M108.304 33.1343C102.53 51.795 93.165 75.6871 83.333 93.0189C77.3644 85.6351 77.7225 76.7071 77.4729 67.695C77.2233 58.6828 80.11 49.6238 85.6662 41.9967C88.6288 37.9258 89.0195 34.042 94.4672 33.1436" fill="#3F2D26"/>
<path d="M174.902 50.0169C181.739 61.7337 188.587 73.4785 193.774 85.8597C195.359 82.7153 195.836 79.2059 196.14 75.7526C197.203 63.6802 196.259 51.0276 189.922 40.3496C187.285 35.9044 183.779 31.9177 179.959 28.2492C177.29 25.6943 174.414 23.2424 171.017 21.5486C167.61 19.8547 163.606 18.9469 159.786 19.6301C158.928 19.7798 158.049 20.0325 157.42 20.5846C153.654 23.8788 159.297 32.0768 162.151 34.6316C167.425 39.3483 171.43 44.0556 174.913 50.0169H174.902Z" fill="#3F2D26"/>
<path d="M121.369 83.1924C114.956 82.397 108.358 82.9117 102.194 84.6804" stroke="#594138" stroke-linecap="round" stroke-linejoin="round"/>
<path d="M107.653 31.3654C103.974 35.5673 103.258 41.2572 103.236 46.6196C103.192 54.6585 104.516 63.0249 109.53 69.6601C109.964 70.2309 110.442 70.8018 111.125 71.1106C111.787 71.4101 112.558 71.4288 113.296 71.4195C117.029 71.3727 120.762 70.8486 124.332 69.8847C121.315 61.3124 120.979 51.982 123.366 43.2506C123.323 51.4486 125.558 59.6559 129.823 66.89C130.431 67.9194 131.093 68.9488 132.091 69.6881C134.121 71.1855 137.018 71.1387 139.634 71.0077C143.258 70.8299 146.872 70.6521 150.496 70.4743C147.121 59.9741 144.582 48.7159 147.892 38.197C148.63 45.768 149.4 53.4606 152.537 60.5075C153.296 62.2108 154.262 63.9514 155.966 64.9528C159.363 66.9648 163.92 65.2429 167.914 65.8793C165.461 59.0195 164.843 51.6264 166.123 44.514C166.916 40.1062 168.435 35.6048 167.252 31.2718C166.308 27.8092 163.682 24.8519 160.48 22.7743C157.279 20.6968 153.513 19.424 149.704 18.5069C142.271 16.7007 134.359 16.1486 126.85 17.6834C119.34 19.2181 112.254 22.9615 107.761 28.614" fill="#3F2D26"/>
<path d="M159.287 125.904C159.829 124.407 160.263 122.704 160.046 121.6C160.155 122.152 147.534 123.303 146.59 123.387C140.122 123.939 139.634 123.499 130.735 123.06C128.63 122.957 120.675 121.469 120.523 122.189C120.36 123.003 120.556 124.491 121.077 126.223C125.461 127.645 136.508 129.648 159.276 125.914L159.287 125.904Z" fill="white"/>
<path d="M127.631 133.485C126.882 133.607 126.123 133.738 125.385 133.906C125.949 134.505 126.557 135.057 127.219 135.516C129.563 137.144 132.091 138.426 134.793 138.744C139.091 139.25 143.811 139.456 147.914 137.827C149.552 137.172 151.18 136.405 152.612 135.263C153.144 134.842 153.654 134.383 154.153 133.897C152.808 133.485 151.375 133.242 149.965 133.073C142.553 132.193 135 132.334 127.631 133.485Z" fill="#FF5C5C"/>
<path d="M158.342 128.141C158.625 127.57 158.972 126.775 159.287 125.904C136.519 129.648 125.482 127.636 121.087 126.213C121.836 128.702 123.29 131.697 125.374 133.906C126.112 133.737 126.872 133.597 127.62 133.485C134.989 132.334 142.542 132.193 149.954 133.073C151.365 133.241 152.797 133.475 154.143 133.896C155.803 132.277 157.268 130.321 158.342 128.141Z" fill="#030201"/>
<path d="M177.377 223.878C178.755 225.169 180.068 226.769 179.938 228.557C179.818 230.073 178.679 231.346 177.583 232.516C173.589 236.764 169.596 241.013 165.602 245.262C165.385 245.486 165.157 245.72 164.853 245.823C164.419 245.954 163.953 245.786 163.562 245.589C160.914 244.307 159.134 241.968 157.452 239.712C154.685 235.978 151.907 232.244 149.14 228.51C147.089 225.749 145.038 222.979 143.54 219.938C139.926 212.601 138.885 202.625 140.165 194.708C146.286 198.442 151.061 203.664 156.313 208.287C162.835 214.023 171.082 217.963 177.377 223.878Z" fill="#3B3B3B"/>
<path d="M137.061 213.743C135.835 219.142 135.227 224.636 134.62 230.12C132.634 248.107 130.648 266.094 128.662 284.09C128.618 284.511 128.575 284.96 128.749 285.353C129.031 285.999 129.801 286.336 130.518 286.589C134.034 287.824 137.832 288.385 141.597 288.208C144.452 281.011 144.603 273.187 144.473 265.542C144.137 247.04 142.205 228.529 143.388 210.055C143.41 209.765 143.399 209.419 143.138 209.251C142.878 209.082 142.411 209.438 142.661 209.625" fill="#242424"/>
<path d="M139.612 216.12C139.373 245.056 139.134 274.002 138.896 302.938C143.258 303.453 147.675 303.621 152.059 303.425C152.797 303.396 153.578 303.331 154.164 302.929C155.076 302.302 155.163 301.104 155.152 300.065C155.087 290.95 153.904 281.881 152.732 272.832C151.657 264.559 150.583 256.286 149.509 248.013C148.532 240.489 147.555 232.965 146.579 225.441C146.058 221.463 145.548 217.477 144.528 213.574" fill="#3B3B3B"/>
<path d="M107.956 223.878C106.578 225.169 105.265 226.769 105.395 228.557C105.515 230.073 106.654 231.346 107.75 232.516C111.744 236.764 115.737 241.013 119.731 245.262C119.948 245.486 120.176 245.72 120.479 245.823C120.914 245.954 121.369 245.786 121.771 245.589C124.419 244.307 126.198 241.968 127.881 239.712C130.648 235.978 133.426 232.244 136.193 228.51C138.244 225.749 140.295 222.979 141.793 219.938C145.407 212.601 146.448 202.625 145.168 194.708C139.047 198.442 134.272 203.664 129.02 208.287C122.498 214.023 114.25 217.963 107.956 223.878Z" fill="#333333"/>
<path d="M199.016 192.976C199.016 191.769 197.638 190.786 195.923 190.739C190.063 187.81 176.531 169.524 176.531 169.524C176.531 169.524 155.586 182.981 144.17 182.205C132.743 181.418 120.209 171.779 120.209 171.779C117.561 178.967 101.521 188.25 98.3418 190.038C98.3201 190.038 98.2984 190.038 98.2766 190.038C96.5078 190.038 95.0645 191.039 95.0645 192.274C95.0645 193.51 96.4969 194.511 98.2766 194.511C98.2984 194.511 98.3201 194.511 98.3418 194.511C97.7123 194.923 97.3108 195.494 97.3108 196.149C97.3108 197.384 98.7433 198.385 100.523 198.385C100.577 198.385 100.642 198.376 100.697 198.376C100.414 198.713 100.241 199.097 100.241 199.508C100.241 200.744 101.673 201.745 103.453 201.745C103.551 201.745 103.638 201.726 103.724 201.726C103.171 202.129 102.824 202.671 102.824 203.27C102.824 204.506 104.245 205.498 106.014 205.507C105.58 205.919 105.298 206.424 105.298 206.995C105.298 208.202 106.502 209.185 108.054 209.344C107.816 209.662 107.664 210.008 107.664 210.392C107.664 211.627 109.096 212.629 110.876 212.629C111.744 212.629 112.525 212.386 113.101 211.992C113.48 213.106 114.555 213.92 115.835 213.92C117.3 213.92 118.494 212.863 118.678 211.506C119.21 212.077 119.97 212.442 120.827 212.442C122.292 212.442 123.486 211.384 123.67 210.027C124.202 210.598 124.962 210.963 125.819 210.963C127.284 210.963 128.478 209.906 128.662 208.549C129.194 209.119 129.954 209.484 130.811 209.484C132.276 209.484 133.47 208.427 133.654 207.07C134.186 207.641 134.946 208.006 135.803 208.006C137.268 208.006 138.462 206.948 138.646 205.591C139.178 206.162 139.938 206.527 140.795 206.527C142.26 206.527 143.454 205.47 143.638 204.113C144.17 204.684 144.929 205.049 145.787 205.049C146.785 205.049 147.664 204.553 148.185 203.804C148.521 205.095 149.759 206.012 151.169 205.928C152.027 205.881 152.754 205.47 153.242 204.871C153.524 206.218 154.794 207.201 156.248 207.126C157.105 207.079 157.833 206.668 158.321 206.069C158.603 207.416 159.873 208.399 161.327 208.324C162.184 208.277 162.911 207.865 163.4 207.266C163.682 208.614 164.951 209.597 166.406 209.522C167.263 209.475 167.99 209.063 168.478 208.464C168.76 209.812 170.03 210.795 171.484 210.72C172.342 210.673 173.069 210.261 173.557 209.662C173.839 211.01 175.109 211.992 176.563 211.918C177.301 211.88 177.941 211.562 178.419 211.103C178.766 212.367 180.003 213.275 181.403 213.19C182.043 213.153 182.608 212.91 183.063 212.545C183.628 213.2 184.637 213.64 185.809 213.64C187.578 213.64 189.021 212.638 189.021 211.403C189.021 211.057 188.902 210.729 188.696 210.439C190.063 210.168 191.072 209.25 191.072 208.137C191.072 207.613 190.834 207.126 190.454 206.733C191.713 206.434 192.613 205.601 192.613 204.627C192.613 203.766 191.919 203.036 190.899 202.653L191.007 202.428C192.581 202.288 193.807 201.352 193.807 200.22C193.807 199.808 193.633 199.424 193.351 199.087C193.405 199.087 193.46 199.097 193.525 199.097C195.294 199.097 196.737 198.095 196.737 196.86C196.737 196.214 196.335 195.634 195.706 195.222C195.728 195.222 195.749 195.222 195.771 195.222C197.54 195.222 198.983 194.221 198.983 192.986L199.016 192.976ZM105.775 201.034C105.775 201.034 105.765 201.043 105.754 201.043C105.754 201.043 105.754 201.043 105.765 201.034H105.775Z" fill="white"/>
<path d="M118.483 225.385C117.843 225.946 117.191 226.611 117.137 227.415C119.774 228.304 122.52 226.545 124.669 224.898C127.794 222.502 130.919 220.106 134.045 217.701C134.826 219.386 133.578 221.239 132.308 222.652C131.039 224.065 129.584 225.684 129.921 227.481C130.029 228.061 130.561 228.716 131.191 228.548C131.56 228.454 131.777 228.117 131.95 227.808C133.6 224.87 134.956 221.791 135.987 218.637C136.953 215.671 137.734 212.685 139.775 210.13C136.443 211.534 133.383 214.07 130.659 216.288C126.752 219.47 122.249 222.053 118.494 225.375L118.483 225.385Z" fill="#242424"/>
<path d="M148.554 214.079C154.11 219.807 158.256 226.648 160.6 233.966C160.697 234.256 160.795 234.565 161.045 234.761C161.305 234.967 161.674 235.014 162.01 235.014C164.289 234.977 165.885 233.03 167.1 231.28L169.498 227.836C170.041 227.059 170.605 226.105 170.193 225.263C169.824 224.514 168.858 224.205 167.99 223.962C165.602 223.316 163.215 222.661 160.817 222.015C161.761 223.653 162.705 225.3 163.649 226.938C162.575 226.863 161.913 225.899 161.381 225.047C159.037 221.266 156.096 217.776 152.699 214.716C151.603 213.733 148.89 210.71 147.306 210.626C144.539 210.476 147.74 213.246 148.543 214.07L148.554 214.079Z" fill="#242424"/>
<path d="M89.6492 78.5509C80.5444 104.09 80.132 129.236 88.4338 152.838C77.6143 146.325 74.0766 137.518 70.745 128.946C68.2056 122.414 65.6663 115.863 64.6245 109.087C62.7796 97.0899 69.4319 84.4186 76.9198 71.7754" fill="#3F2D26"/>
<path d="M97.2239 60.9289C92.4707 73.6376 93.2087 87.3945 93.0893 100.815C93.0133 109.321 92.5575 117.866 93.773 126.298C94.9884 134.729 98.0052 143.18 104.072 149.675C98.9277 151.004 93.2629 149.46 88.9764 146.568C84.6898 143.685 81.5753 139.596 78.9057 135.413C72.134 124.772 67.7064 112.859 66.491 100.627C65.2864 88.3959 71.0814 75.8556 76.6376 64.6535C77.343 63.231 78.1461 61.7711 79.4917 60.7979" fill="#3F2D26"/>
<path d="M203.183 126.849C203.183 131.5 200.763 135.272 197.768 135.272C194.773 135.272 192.353 131.5 192.353 126.849C192.353 122.198 194.773 118.427 197.768 118.427C200.763 118.427 203.183 122.198 203.183 126.849Z" fill="white"/>
<path d="M197.93 130.228C200.076 130.228 201.815 127.589 201.815 124.332C201.815 121.076 200.076 118.437 197.93 118.437C195.785 118.437 194.045 121.076 194.045 124.332C194.045 127.589 195.785 130.228 197.93 130.228Z" fill="#DD6898"/>
</svg>
