<svg width="292" height="318" viewBox="0 0 292 318" fill="none" xmlns="http://www.w3.org/2000/svg">
<path d="M110.121 39.3412C114.638 36.6633 120.127 36.0403 125.432 35.6777C131.613 35.2593 137.891 35.1291 143.906 36.5331C151.585 38.3277 158.399 42.5398 164.725 47.0773C167.237 48.8812 169.709 50.7594 171.889 52.9352C184.64 65.618 189.974 83.3312 190.022 100.505C190.081 118.274 190.83 136.898 194.081 154.398C196.028 164.886 199.22 175.114 202.909 185.156C206.413 194.706 210.949 203.725 212.419 213.767C212.701 215.72 212.973 217.663 213.217 219.616C214.034 226.18 214.706 233.358 210.91 238.891C208.292 242.703 190.966 237.849 186.664 239.821C174.439 245.409 161.017 248.886 147.478 248.747C133.939 248.608 120.263 244.702 109.586 236.734C98.9086 228.774 91.4626 216.612 90.6353 203.697" fill="#292D30"/>
<path d="M111.708 55.6783C107.571 52.4518 103.308 49.3648 98.9376 46.4265C96.4264 44.7342 93.8374 43.0791 90.9368 42.1028C83.4032 39.583 74.692 42.2423 68.8715 47.4586C63.0509 52.6749 59.8194 60.067 58.2329 67.5335C56.6463 75 56.5588 82.6804 56.0916 90.2863C55.1669 105.415 52.7239 120.543 47.4679 134.834C41.1412 152.027 30.8627 167.694 24.2927 184.803C17.7227 201.921 15.2212 221.829 24.3803 237.822C27.0959 242.564 29.6071 247.148 34.0066 250.542C37.3841 253.145 41.1508 255.228 44.9176 257.264C64.4913 267.846 84.9022 277.451 106.773 282.453C128.644 287.456 152.228 287.604 173.106 279.617" fill="#292D30"/>
<path d="M32.6831 244.683C36.9853 236.017 41.5793 227.007 49.7845 221.112C56.9288 215.98 66.0295 213.785 74.8576 211.702C83.423 209.685 92.0078 207.667 100.787 206.672C137.54 202.497 173.622 216.379 207.377 230.299C237.745 242.824 260.453 254.651 286.236 273.87C288.329 275.433 290.471 277.134 291.405 279.44C293.429 284.415 289.079 289.594 284.455 292.82C275.52 299.05 272.503 303.643 261.66 306.451C243.858 311.054 225.617 314.262 207.202 316.029C175.014 319.116 142.524 317.805 110.18 316.484C90.2363 315.675 70.2829 314.857 50.3977 313.239C38.1727 312.244 12.8466 309.539 12.9731 294.55C13.1094 278.278 25.4999 259.151 32.6831 244.693V244.683Z" fill="#AFAADB"/>
<path d="M96.1156 172.799C96.2422 184.914 95.8333 197.067 93.6141 208.959C93.2832 210.726 92.9036 212.549 92.4656 214.297C90.8402 220.759 88.9324 227.212 89.127 233.86C89.2146 236.705 89.9836 239.839 92.4656 241.41C95.337 243.233 99.201 242.21 102.355 240.871C116.098 235.013 126.922 224.432 137.395 214.092C138.718 212.781 140.071 211.433 140.85 209.768C141.697 207.955 141.784 205.928 141.853 203.948C142.631 181.558 141.726 159.112 139.166 136.842" fill="#E8AE9E"/>
<path d="M57.1134 128.055C57.055 130.919 57.6292 140.784 59.3034 145.638C62.7976 155.736 71.4311 175.69 81.6025 179.698C83.5394 180.46 85.5736 181.037 87.6566 181.232C92.2994 181.66 96.8838 180.172 101.303 178.693C115.533 173.951 130.688 166.782 140.197 155.485C141.56 153.867 142.806 152.128 144.421 150.752C146.261 149.19 148.5 148.158 150.573 146.912C157.678 142.616 162.856 135.457 164.599 127.525C165.854 121.788 165.017 115.075 160.384 111.309C158.058 109.412 155.031 108.492 152.004 108.11C147.672 107.571 142.514 108.51 140.45 112.239C139.535 102.411 138.581 92.4336 134.824 83.2655C131.058 74.1067 124.02 65.7197 114.365 62.5676C105.819 59.7781 96.7865 57.779 87.715 57.9185C83.374 57.9836 82.0794 57.4443 78.0206 59.0343C73.9812 60.6243 67.8883 65.4408 65.7177 68.9276C59.7415 78.5327 61.2404 86.4641 61.9412 96.8595C62.8269 109.924 57.3762 114.954 57.1134 128.046V128.055Z" fill="#FBC3B4"/>
<path d="M157.474 113.374C155.138 112.602 150.359 114.248 148.461 115.996C151.177 116.47 153.883 117.028 156.569 117.66C158.049 118.004 159.781 118.637 160.17 120.273C160.326 120.915 160.229 121.593 160.132 122.254C159.956 123.434 159.723 124.727 158.876 125.461C158 126.205 156.783 126.094 155.703 125.936C153.99 125.685 152.277 125.443 150.564 125.192C151.157 126.466 152.316 127.377 153.581 127.581C153.96 127.647 154.389 127.656 154.661 127.963C154.944 128.269 154.953 128.772 154.914 129.209C154.583 133.932 151.216 138.219 147.069 139.186C150.281 139.92 153.707 138.46 156.17 135.987C158.633 133.514 160.248 130.157 161.397 126.698C162.137 124.457 163.742 120.068 162.098 118.023C160.745 116.349 159.333 113.978 157.474 113.364V113.374Z" fill="#DEAB9A"/>
<path d="M133.823 47.0958C127.915 40.7451 120.8 35.1847 112.419 32.0419C104.039 28.8991 94.2859 28.3691 86.0223 31.7536C81.5742 33.5761 77.7101 36.4307 74.1963 39.5363C70.1667 43.1068 63.7427 51.7635 63.5967 56.9333C63.587 57.4261 66.1761 53.6789 66.4097 54.1252C67.0326 55.3526 68.7943 55.5665 70.264 55.6036C78.4011 55.8268 86.5382 56.0593 94.6753 56.2824C101.265 56.4684 104.788 65.1901 111.232 63.9256" fill="#292D30"/>
<path d="M77.9819 109.338C77.9235 111.653 76.3467 113.504 74.4585 113.457C72.5702 113.42 71.081 111.505 71.1394 109.189C71.1978 106.874 72.7746 105.024 74.6628 105.07C76.5511 105.107 78.0403 107.023 77.9819 109.338Z" fill="#030201"/>
<path d="M116.954 111.7C116.896 114.015 115.319 115.866 113.431 115.819C111.543 115.782 110.054 113.866 110.112 111.551C110.17 109.236 111.747 107.386 113.635 107.432C115.524 107.469 117.013 109.385 116.954 111.7Z" fill="#030201"/>
<path d="M107.221 139.958C107.756 138.526 108.194 136.889 108.019 135.811C108.107 136.35 96.5336 137.205 95.677 137.261C89.7494 137.661 89.3211 137.233 81.1841 136.629C79.2666 136.489 72.0153 134.89 71.8693 135.587C71.7038 136.368 71.8402 137.81 72.2782 139.493C76.2591 140.952 86.3135 143.119 107.221 139.958Z" fill="white"/>
<path d="M78.0889 146.652C77.3978 146.755 76.7067 146.866 76.0254 147.015C76.5315 147.61 77.0765 148.149 77.6703 148.605C79.7824 150.223 82.0503 151.515 84.5226 151.878C88.4451 152.454 92.7569 152.743 96.5432 151.255C98.0616 150.66 99.5605 149.944 100.904 148.875C101.4 148.484 101.877 148.047 102.344 147.582C101.118 147.154 99.8234 146.894 98.5289 146.708C91.7739 145.713 84.8535 145.695 78.0889 146.652Z" fill="#FF5C5C"/>
<path d="M106.306 142.105C106.579 141.557 106.909 140.794 107.221 139.967C86.3137 143.128 76.2593 140.962 72.2783 139.502C72.911 141.929 74.1666 144.839 76.0256 147.024C76.707 146.875 77.398 146.755 78.0891 146.662C84.8538 145.695 91.7644 145.713 98.5291 146.717C99.8236 146.913 101.118 147.164 102.344 147.591C103.902 146.057 105.284 144.198 106.316 142.115L106.306 142.105Z" fill="#030201"/>
<path d="M85.5449 127.526C85.3016 127.526 85.0679 127.414 84.9025 127.228L81.4276 123.183C81.2816 123.016 81.0189 122.709 80.9994 122.272C80.9702 121.649 81.418 121.249 81.6321 121.054C84.007 118.897 85.5448 115.643 85.9634 111.886C86.3819 108.204 85.7396 104.503 85.0582 101.37C84.9609 100.923 85.2626 100.496 85.72 100.403C86.1872 100.31 86.635 100.598 86.7324 101.035C87.4429 104.299 88.1047 108.157 87.6667 112.053C87.1995 116.2 85.4767 119.817 82.8098 122.235C82.8098 122.235 82.7903 122.254 82.7806 122.263L86.2262 126.196C86.5279 126.549 86.4695 127.061 86.1094 127.349C85.9439 127.479 85.7396 127.535 85.5449 127.535V127.526Z" fill="#CA9885"/>
<path d="M72.1322 126.856C72.064 129.617 68.7643 131.793 64.7542 131.709C60.7441 131.626 57.5516 129.31 57.6197 126.54C57.6879 123.778 60.9874 121.602 64.9975 121.686C69.0077 121.77 72.2003 124.085 72.1322 126.856Z" fill="#F7A1A1"/>
<path d="M124.653 100.662C124.507 100.662 124.361 100.616 124.225 100.542C120.312 98.2355 115.63 97.0361 111.026 97.1662C108.71 97.2313 107.065 97.659 105.868 98.5145C105.488 98.7841 104.953 98.7097 104.671 98.3471C104.388 97.9845 104.466 97.4731 104.846 97.2034C106.345 96.1434 108.291 95.6134 110.978 95.5297C115.913 95.3903 120.935 96.6827 125.12 99.1561C125.519 99.3978 125.646 99.8999 125.403 100.281C125.237 100.541 124.945 100.672 124.653 100.672V100.662Z" fill="#594138"/>
<path d="M58.8562 99.9099C58.5642 99.9099 58.282 99.7518 58.1262 99.4915C57.8926 99.101 58.0483 98.5989 58.4571 98.3757C62.769 96.0883 67.8401 95.019 72.7652 95.3724C75.4516 95.5676 77.369 96.1813 78.8096 97.3064C79.1794 97.5947 79.2281 98.1061 78.9263 98.4594C78.6246 98.8127 78.0893 98.8592 77.7194 98.571C76.5612 97.669 74.9454 97.1669 72.6289 96.9996C68.0445 96.6648 63.3043 97.6597 59.2844 99.7983C59.1482 99.8727 58.9925 99.9006 58.8465 99.9006L58.8562 99.9099Z" fill="#594138"/>
<path d="M127.535 130.827C126.853 133.514 122.288 134.769 117.354 133.616C112.419 132.473 108.963 129.358 109.645 126.671C110.326 123.983 114.891 122.728 119.826 123.881C124.761 125.025 128.216 128.14 127.535 130.827Z" fill="#F7A1A1"/>
<path d="M107.328 64.1024C107.328 64.1024 100.544 54.7112 89.4965 55.8363C72.1419 57.6029 67.0806 67.1336 67.0806 67.1336C67.0806 67.1336 92.29 59.6206 107.328 64.1024Z" fill="#DEAB9A"/>
<path d="M134.066 109.961C135.321 111.179 136.499 114.285 138.271 114.545C140.315 114.842 142.505 111.904 144.441 111.235C150.642 109.078 159.1 109.57 163.188 114.517C164.667 112.025 163.83 110.565 163.869 107.701C163.937 102.271 164.015 96.8504 164.083 91.4202C164.122 88.1565 164.171 84.8649 163.558 81.6477C162.925 78.3004 161.592 75.1018 160.083 72.0147C155.44 62.5026 148.539 53.3532 138.446 49.2247C133.102 47.0489 127.223 46.4167 121.422 46.1377C118.531 45.9982 115.475 45.9796 112.964 47.3558C103.853 52.3582 104.71 57.6025 106.968 64.6691C109.966 74.0139 117.947 88.454 123.34 96.7853C126.415 101.527 129.978 105.981 134.066 109.952V109.961Z" fill="#292D30"/>
<path d="M109.44 179.214C115.436 176.815 120.867 173.338 126.259 169.888C129.54 167.787 132.81 165.685 136.09 163.584C136.976 166.55 134.757 169.507 132.528 171.739C126.551 177.708 119.485 182.552 112.467 187.36C110.589 188.652 108.691 189.944 106.569 190.828C104.291 191.776 101.79 192.223 99.3078 192.13C98.6265 192.102 97.877 192.009 97.3904 191.544C96.894 191.07 96.8063 190.344 96.7577 189.684C96.5825 187.341 95.3659 181.716 98.2664 180.944C99.7751 180.544 101.965 181.167 103.629 180.916C105.625 180.609 107.571 179.967 109.44 179.224V179.214Z" fill="#C79587"/>
<path d="M120.088 146.177C120.088 146.679 119.66 147.089 119.135 147.089C118.609 147.089 118.181 146.679 118.181 146.177C118.181 145.675 118.609 145.266 119.135 145.266C119.66 145.266 120.088 145.675 120.088 146.177Z" fill="#292D30"/>
<path d="M94.1394 206.179C93.0298 211.349 91.9007 218.09 91.3167 224.199C90.7327 230.308 91.3459 236.64 94.0518 242.201C86.5279 248.012 74.8576 248.254 67.0807 242.759C65.572 241.689 64.19 240.425 63.275 238.853C61.3186 235.506 61.776 231.377 62.5644 227.612C63.7227 222.107 64.1315 218.76 66.4189 213.599L94.1296 206.17L94.1394 206.179Z" fill="white"/>
<path d="M93.5162 241.754C88.9707 240.127 100.787 248.551 105.44 249.872C110.092 251.192 115.017 251.415 119.874 251.341C122.385 251.304 124.896 251.053 127.33 250.458C150.232 244.86 156.773 213.33 157.192 212.242L141.706 207.202C141.706 207.202 106.569 246.441 93.5162 241.754Z" fill="white"/>
</svg>
