<svg width="228" height="228" viewBox="0 0 228 228" fill="none" xmlns="http://www.w3.org/2000/svg">
<rect width="228" height="228" fill="#3F422F"/>
<path d="M197.319 163.072H210.995V168.617H190.844V136.284H197.319V163.072Z" fill="#FAF5EE"/>
<path d="M159.397 168.916C156.756 168.916 154.455 168.361 152.495 167.252C150.564 166.115 149.073 164.537 148.022 162.517C147 160.498 146.488 158.181 146.488 155.565V136.284H152.964V155.479C152.964 157.811 153.489 159.631 154.54 160.939C155.591 162.219 157.21 162.859 159.397 162.859C161.584 162.859 163.203 162.219 164.254 160.939C165.305 159.631 165.83 157.811 165.83 155.479V136.284H172.306V155.565C172.306 158.181 171.78 160.498 170.729 162.517C169.707 164.537 168.216 166.115 166.256 167.252C164.325 168.361 162.038 168.916 159.397 168.916Z" fill="#FAF5EE"/>
<path d="M110.648 158.507C112.438 161.834 114.554 163.498 116.996 163.498C118.842 163.498 120.191 163.142 121.043 162.431C121.924 161.692 122.364 160.696 122.364 159.445C122.364 158.706 122.109 158.08 121.597 157.568C121.114 157.057 120.49 156.63 119.723 156.289C118.984 155.947 117.948 155.549 116.613 155.094C114.568 154.355 112.892 153.658 111.586 153.004C110.308 152.322 109.2 151.341 108.263 150.061C107.325 148.753 106.857 147.075 106.857 145.028C106.857 143.179 107.311 141.572 108.22 140.207C109.129 138.842 110.393 137.79 112.012 137.051C113.659 136.312 115.548 135.942 117.678 135.942C118.956 135.942 120.277 136.226 121.64 136.795C123.032 137.335 124.31 138.203 125.474 139.397C126.667 140.563 127.604 142.042 128.286 143.833L122.62 145.923C121.938 144.246 121.157 143.08 120.277 142.426C119.425 141.772 118.558 141.444 117.678 141.444C116.258 141.444 115.164 141.786 114.397 142.468C113.659 143.151 113.29 144.004 113.29 145.028C113.29 145.767 113.545 146.407 114.057 146.947C114.568 147.487 115.207 147.942 115.974 148.312C116.769 148.682 117.862 149.137 119.254 149.677C121.271 150.473 122.904 151.213 124.153 151.895C125.432 152.578 126.525 153.545 127.434 154.796C128.343 156.019 128.797 157.568 128.797 159.445C128.797 161.322 128.314 162.986 127.349 164.436C126.411 165.858 125.048 166.981 123.259 167.806C121.498 168.602 119.41 169 116.996 169C114.639 169 112.466 168.346 110.478 167.038C108.518 165.701 106.828 163.853 105.408 161.493L110.648 158.507Z" fill="#FAF5EE"/>
<path d="M72.9991 163.327C76.0381 163.327 78.4381 162.36 80.199 160.426C81.9883 158.464 82.883 155.805 82.883 152.45C82.883 149.094 81.9883 146.449 80.199 144.516C78.4381 142.554 76.0381 141.572 72.9991 141.572C69.9601 141.572 67.546 142.554 65.7567 144.516C63.9957 146.449 63.1153 149.094 63.1153 152.45C63.1153 155.805 63.9957 158.464 65.7567 160.426C67.546 162.36 69.9601 163.327 72.9991 163.327ZM72.9991 135.942C76.1517 135.942 78.9635 136.653 81.4345 138.075C83.9339 139.468 85.8794 141.416 87.2711 143.919C88.6628 146.421 89.3586 149.265 89.3586 152.45C89.3586 155.635 88.6628 158.478 87.2711 160.981C85.8794 163.483 83.9339 165.445 81.4345 166.867C78.9635 168.261 76.1517 168.957 72.9991 168.957C69.8465 168.957 67.0205 168.261 64.5212 166.867C62.0502 165.445 60.1189 163.483 58.7272 160.981C57.3355 158.478 56.6396 155.635 56.6396 152.45C56.6396 149.265 57.3355 146.421 58.7272 143.919C60.1189 141.416 62.0502 139.468 64.5212 138.075C67.0205 136.653 69.8465 135.942 72.9991 135.942Z" fill="#FAF5EE"/>
<path d="M22.0146 158.507C23.8039 161.834 25.9198 163.498 28.3624 163.498C30.2085 163.498 31.5576 163.142 32.4097 162.431C33.2901 161.692 33.7303 160.696 33.7303 159.445C33.7303 158.706 33.4747 158.08 32.9635 157.568C32.4807 157.057 31.8558 156.63 31.089 156.289C30.3505 155.947 29.3138 155.549 27.979 155.094C25.934 154.355 24.2583 153.658 22.9518 153.004C21.6737 152.322 20.5661 151.341 19.6288 150.061C18.6915 148.753 18.2229 147.075 18.2229 145.028C18.2229 143.179 18.6773 141.572 19.5862 140.207C20.4951 138.842 21.7589 137.79 23.3779 137.051C25.0252 136.312 26.9139 135.942 29.044 135.942C30.3221 135.942 31.6428 136.226 33.0061 136.795C34.3978 137.335 35.6759 138.203 36.8403 139.397C38.0332 140.563 38.9705 142.042 39.6521 143.833L33.986 145.923C33.3043 144.246 32.5233 143.08 31.6428 142.426C30.7907 141.772 29.9245 141.444 29.044 141.444C27.6239 141.444 26.5305 141.786 25.7636 142.468C25.0252 143.151 24.6559 144.004 24.6559 145.028C24.6559 145.767 24.9116 146.407 25.4228 146.947C25.934 147.487 26.5731 147.942 27.3399 148.312C28.1352 148.682 29.2286 149.137 30.6203 149.677C32.6369 150.473 34.27 151.213 35.5197 151.895C36.7977 152.578 37.8912 153.545 38.8001 154.796C39.7089 156.019 40.1634 157.568 40.1634 159.445C40.1634 161.322 39.6805 162.986 38.7149 164.436C37.7776 165.858 36.4143 166.981 34.625 167.806C32.8641 168.602 30.7765 169 28.3624 169C26.005 169 23.8323 168.346 21.8442 167.038C19.8844 165.701 18.1945 163.853 16.7744 161.493L22.0146 158.507Z" fill="#FAF5EE"/>
<path fill-rule="evenodd" clip-rule="evenodd" d="M214 122.155H14V115.56H214V122.155Z" fill="#FAF5EE"/>
<path fill-rule="evenodd" clip-rule="evenodd" d="M98.4416 84.98L118.492 116.232L112.938 119.753L98.439 97.153L83.9251 119.754L78.3726 116.231L98.4416 84.98Z" fill="#FAF5EE"/>
<path fill-rule="evenodd" clip-rule="evenodd" d="M115.639 58L135.559 89.251L130.048 92.7737L115.642 70.1731L101.251 92.7725L95.7383 89.2522L115.639 58Z" fill="#FAF5EE"/>
<path fill-rule="evenodd" clip-rule="evenodd" d="M95.1387 120.054V110.461H101.725V120.054H95.1387Z" fill="#FAF5EE"/>
<path fill-rule="evenodd" clip-rule="evenodd" d="M136.594 94.5128H115.59V87.9785H144.541C145.872 87.9785 147.072 88.7745 147.582 89.9954C148.091 91.2162 147.81 92.6215 146.868 93.5559L124.64 115.618H147.701V122.153H116.693C115.362 122.153 114.162 121.357 113.652 120.136C113.143 118.915 113.424 117.51 114.366 116.575L136.594 94.5128Z" fill="#FAF5EE"/>
</svg>
