<svg width="292" height="318" viewBox="0 0 292 318" fill="none" xmlns="http://www.w3.org/2000/svg">
<path d="M77.7784 93.9264C74.2174 137.354 68.0767 180.541 59.3867 223.196C59.0934 224.626 58.8101 226.159 59.3058 227.526C60.0545 229.57 62.2598 230.551 64.2629 231.25C77.6873 235.913 91.9412 237.29 106.054 238.604C133.631 241.181 161.896 243.611 188.634 236.184C191.497 235.391 194.451 234.41 196.585 232.293C199.63 229.268 200.379 224.573 200.642 220.213C201.846 200.904 197.04 181.678 197.212 162.327C197.324 149.903 199.499 137.541 198.942 125.128C197.971 103.273 188.401 82.3158 174.248 66.0215" fill="#030201"/>
<path d="M75.7145 98.8084C68.0665 91.2767 65.2137 77.7676 66.3467 65.5103C67.4797 53.253 72.0017 41.9763 76.8273 31.2838C78.9112 26.6521 81.0964 22.0413 83.9695 18.1607C91.4961 8.02104 102.786 4.15087 113.6 2.00194C125.942 -0.439089 138.729 -1.2006 150.798 2.91993C162.867 7.04047 178.902 15.2815 184.718 29.3957C186.428 33.5475 193.257 49.0908 195.28 53.6286C201.593 67.7531 197.88 88.9609 192.093 103.44" fill="#FFAB3B"/>
<path d="M170.899 190.931C196.686 201.04 229.443 211.137 255.229 221.246C261.603 223.749 268.168 226.357 272.964 230.947C277.678 235.454 280.247 241.462 282.534 247.346C285.629 255.316 288.411 263.38 290.89 271.527C291.608 273.905 292.316 276.377 291.851 278.808C291.416 281.103 289.979 283.137 288.32 284.89C284.375 289.052 279.074 291.931 273.702 294.424C252.508 304.272 222.058 309.196 198.618 312.805C182.473 315.298 166.114 317.197 149.746 318H135.29C118.921 317.207 102.563 315.298 86.4175 312.805C62.9778 309.196 39.4876 304.272 18.2938 294.424C12.922 291.931 7.62107 289.052 3.67568 284.89C2.00648 283.137 0.569967 281.103 0.145079 278.808C-0.310158 276.377 0.387822 273.905 1.10609 271.527C3.5846 263.38 6.37673 255.316 9.46222 247.346C11.7485 241.462 14.3079 235.464 19.0323 230.947C23.8274 226.357 30.393 223.749 36.7663 221.246C62.553 211.137 88.3497 201.04 114.136 190.931" fill="#FBD843"/>
<path d="M166.246 141.005C165.629 151.52 165.831 162.181 168.482 172.415C171.132 182.638 176.403 192.454 184.698 199.423C185.204 199.475 172.286 232.397 134.005 232.283C134.005 232.283 94.086 220.161 98.9116 199.423C107.207 192.454 112.467 182.638 115.128 172.415C117.779 162.192 117.981 151.531 117.364 141.005" fill="#F1B7A0"/>
<path d="M182.574 45.2415C187.592 56.4764 189.392 66.0528 189.392 78.3309C189.392 85.7166 192.033 95.6163 190.586 102.856C188.047 115.51 184.971 128.226 178.831 139.596C172.69 150.967 163.12 160.982 150.879 165.321C145.801 167.126 140.277 167.908 134.956 166.99C129.736 166.083 124.951 163.6 120.257 161.148C114.673 158.228 111.091 155.077 106.731 150.56C101.41 145.052 94.8749 133.817 92.2851 126.63C83.6862 102.741 82.0675 95.8562 78.3346 70.7679C78.3346 70.7679 75.5526 27.4345 121.997 22.7611C168.441 18.0876 178.659 36.4684 182.574 45.231V45.2415Z" fill="#FCBFA8"/>
<path d="M119.569 166.364C122.715 170.777 127.581 173.917 132.64 175.575C134.521 176.191 136.443 176.744 138.416 176.932C142.179 177.307 145.983 176.368 149.412 174.731C151.345 173.813 153.186 172.665 154.956 171.455C156.312 170.527 157.647 169.546 158.73 168.305C159.883 166.98 160.702 165.394 161.522 163.829C162.442 162.056 163.383 160.23 163.555 158.228C159.478 161.044 155.239 163.652 150.687 165.551C146.135 167.449 141.259 168.618 136.342 168.503C132.124 168.409 127.996 167.366 123.919 166.229C122.027 165.697 120.024 165.071 118.729 163.558C118.77 164.059 119.529 165.864 119.569 166.364Z" fill="#CA9885"/>
<path d="M133.064 112.286C132.811 112.307 132.548 112.234 132.346 112.046L128.127 108.061C127.955 107.894 127.632 107.592 127.551 107.112C127.429 106.434 127.844 105.933 128.046 105.693C130.252 103.023 131.425 99.2464 131.354 95.0737C131.284 90.9844 130.1 87.0099 128.957 83.6614C128.795 83.1919 129.048 82.6808 129.523 82.5139C130.009 82.3574 130.515 82.6077 130.677 83.0772C131.87 86.5614 133.105 90.7028 133.175 95.0424C133.256 99.6428 131.931 103.836 129.453 106.841C129.453 106.841 129.432 106.862 129.422 106.872L133.6 110.732C133.964 111.076 133.975 111.65 133.631 112.004C133.479 112.171 133.266 112.255 133.064 112.276V112.286Z" fill="#CA9885"/>
<path d="M175.735 106.361C176.049 109.397 171.941 112.307 166.559 112.849C161.178 113.392 156.564 111.368 156.261 108.322C155.947 105.286 160.055 102.376 165.436 101.834C170.818 101.291 175.432 103.315 175.735 106.361Z" fill="#F7A1A1"/>
<path d="M114.875 97.1496C115.421 99.6428 114.329 102.032 112.447 102.459C110.555 102.897 108.593 101.228 108.047 98.7248C107.5 96.2316 108.593 93.8427 110.475 93.415C112.366 92.9769 114.329 94.646 114.875 97.1496Z" fill="#030201"/>
<path d="M155.31 87.7715C155.856 90.2646 154.764 92.6535 152.882 93.0812C150.99 93.5193 149.028 91.8503 148.482 89.3467C147.935 86.8535 149.028 84.4646 150.909 84.0369C152.791 83.6092 154.764 85.2678 155.31 87.7715Z" fill="#030201"/>
<path d="M164.516 74.1894C164.395 74.2415 164.263 74.2728 164.132 74.2728C157.03 74.1268 149.908 75.7854 143.535 79.0401C143.059 79.2487 142.574 79.0818 142.361 78.6333C142.149 78.1847 142.321 77.6422 142.756 77.4232C149.382 74.0329 156.777 72.3221 164.162 72.4681C164.648 72.4681 165.032 72.8958 165.022 73.3861C165.022 73.7408 164.81 74.0433 164.516 74.1894Z" fill="#594138"/>
<path d="M114.875 85.4455C114.763 85.4977 114.642 85.529 114.51 85.529C108.603 85.5916 102.644 87.0416 97.3531 89.7017C96.8777 89.9312 96.392 89.733 96.1796 89.2844C95.9672 88.8359 96.1493 88.2934 96.5843 88.0744C102.138 85.2787 108.329 83.7765 114.49 83.7139C114.976 83.7139 115.37 84.1103 115.37 84.611C115.37 84.9761 115.168 85.2891 114.865 85.4351L114.875 85.4455Z" fill="#594138"/>
<path d="M135.634 140.619C139.67 141.067 144.031 138.877 146.833 135.966C148.29 134.454 149.413 132.774 150.363 131.021C142.837 131.919 135.432 133.963 128.107 136.112C129.969 138.303 132.376 140.254 135.634 140.619Z" fill="#FF4343"/>
<path d="M154.42 120.016C145.558 122.927 136.453 125.055 127.237 126.369C125.74 126.578 124.212 126.745 122.695 126.745C123.828 129.822 125.436 132.722 127.48 135.351C127.682 135.612 127.895 135.862 128.107 136.112C135.431 133.963 142.837 131.919 150.363 131.022C151.243 129.405 151.972 127.736 152.67 126.077C153.509 124.105 154.319 121.998 154.41 120.016H154.42Z" fill="#030201"/>
<path d="M154.42 120.016C154.46 119.067 154.359 118.138 153.985 117.272C145.811 119.703 137.505 121.612 129.149 122.979C127.399 123.271 124.728 123.02 123.12 123.552C121.289 124.168 122.159 125.274 122.675 126.703C122.675 126.713 122.685 126.724 122.695 126.744C124.212 126.744 125.73 126.588 127.237 126.369C136.453 125.065 145.558 122.926 154.42 120.016Z" fill="white"/>
<path d="M112.801 117.669C113.115 120.705 109.007 123.615 103.625 124.158C98.2434 124.7 93.6304 122.676 93.3269 119.63C93.0133 116.595 97.1205 113.684 102.502 113.142C107.884 112.599 112.497 114.623 112.801 117.669Z" fill="#F7A1A1"/>
<path d="M87.7126 97.5151C84.7586 95.1784 80.9852 94.6464 77.8997 96.1486C74.8142 97.6508 72.4975 101.135 71.8703 105.214C71.2228 109.47 72.3863 114.102 74.5006 117.794C76.615 121.487 79.6195 124.335 82.8061 126.526C85.7399 128.55 88.886 130.083 92.103 131.064C94.5714 131.815 97.1411 132.263 99.4173 133.765" fill="#FCBFA8"/>
<path d="M77.7476 101.448C79.6495 100.196 84.1816 100.811 86.1948 102.136C83.8984 103.179 81.6323 104.306 79.3966 105.495C78.1624 106.153 76.7664 107.144 76.7461 108.844C76.7461 109.512 76.9585 110.169 77.1709 110.795C77.5553 111.921 78.0208 113.163 78.911 113.705C79.8316 114.258 80.8736 113.882 81.7942 113.496C83.2509 112.891 84.7076 112.286 86.1644 111.681C85.9014 113.058 85.0618 114.216 83.9794 114.686C83.6556 114.821 83.2812 114.936 83.1092 115.291C82.9271 115.656 83.0182 116.146 83.1295 116.584C84.3536 121.185 88.1675 124.711 92.0117 124.804C89.3309 126.202 86.0329 125.483 83.3824 123.563C80.7319 121.644 78.6378 118.65 76.9484 115.468C75.8457 113.413 73.5696 109.407 74.6116 107.039C75.4614 105.099 76.2403 102.449 77.7578 101.448H77.7476Z" fill="#E2AC96"/>
<path d="M159.306 75.2847C168.309 82.4095 176.463 90.6715 183.535 99.8097C185.892 102.845 188.148 106.037 189.493 109.678C191.203 103.398 192.275 96.9514 192.71 90.442C192.953 86.8326 192.983 83.2023 193.024 79.5825C193.125 67.9511 193.084 55.9651 188.734 45.2308C184.263 34.1941 175.219 25.2123 164.344 21.0396C156.868 18.1605 148.775 17.5137 140.793 17.2842C132.953 17.0547 124.92 17.2112 117.353 19.5896C111.749 21.3526 103.382 25.5774 105.669 33.0674C107.601 39.3995 115.694 44.5319 120.601 48.2978C126.529 52.846 132.771 56.9457 138.992 61.0453C145.892 65.5936 152.801 70.1418 159.306 75.2847Z" fill="#030201"/>
<path d="M114.227 27.9561C113.58 34.0378 112.67 40.1508 110.484 45.8466C106.843 55.3499 99.923 63.0381 94.1971 71.373C88.4712 79.7184 83.7165 89.7433 85.3958 99.8099C83.767 99.9038 82.4418 98.5685 81.1469 97.5462C79.8521 96.5239 77.8793 95.7833 76.6957 96.9412C74.6522 86.3739 73.1044 75.6292 73.4484 64.8636C73.8025 54.0981 76.1292 43.2386 81.4201 33.944C83.2411 30.7414 85.4565 27.6953 88.3599 25.5047C92.1232 22.6673 96.797 21.4572 101.37 20.5183C106.66 19.4334 112.073 18.6197 117.434 19.2665C122.786 19.9133 128.127 22.1457 131.688 26.3288" fill="#030201"/>
<path d="M184.698 199.412C176.534 192.558 171.314 182.93 168.623 172.874C165.325 175.763 154.218 184.547 139.397 186.164C125.254 187.707 116.696 180.051 113.772 176.838C110.849 185.423 105.993 193.455 98.9116 199.401C94.086 220.14 134.005 232.261 134.005 232.261C172.286 232.366 185.204 199.454 184.698 199.401V199.412Z" fill="#FBD843"/>
<path d="M173.934 88.1367C180.196 99.0691 186.134 110.617 187.51 123.239C188.158 129.227 187.753 135.278 187.348 141.297C185.71 165.53 184.081 189.763 182.442 213.995C182.361 215.164 182.29 216.363 182.543 217.501C182.786 218.575 183.302 219.556 183.848 220.505C190.454 231.948 201.795 240.367 214.41 243.204C215.057 228.767 211.86 214.475 210.323 200.111C209.099 188.719 208.917 177.244 208.249 165.801C207.379 150.831 203.322 100.989 203.373 95.3137C203.413 90.7029 194.217 61.3271 190.292 49.7583" fill="#030201"/>
</svg>
