<svg width="264" height="148" viewBox="0 0 264 148" fill="none" xmlns="http://www.w3.org/2000/svg">
<g filter="url(#filter0_d_2010_2724)">
<mask id="path-1-inside-1_2010_2724" fill="white">
<path fill-rule="evenodd" clip-rule="evenodd" d="M4 20H235V34.7793C235 34.7793 235 34.7793 235 34.7793C230.031 34.7793 226.004 38.8068 226.004 43.7751C226.004 48.7433 230.031 52.7709 235 52.7709C235 52.7709 235 52.7709 235 52.7709V59.5177C235 59.5177 235 59.5177 234.999 59.5177C230.031 59.5177 226.004 63.5453 226.004 68.5135C226.004 73.4818 230.031 77.5094 234.999 77.5094C235 77.5094 235 77.5094 235 77.5094V84.2568C235 84.2568 235 84.2568 235 84.2568C230.031 84.2568 226.004 88.2844 226.004 93.2526C226.004 98.2209 230.031 102.248 235 102.248C235 102.248 235 102.248 235 102.248V108.995C235 108.995 235 108.995 234.999 108.995C230.031 108.995 226.004 113.023 226.004 117.991C226.004 122.959 230.031 126.987 234.999 126.987C235 126.987 235 126.987 235 126.987V141.765H4V126.987H4.00011C8.96837 126.987 12.9959 122.959 12.9959 117.991C12.9959 113.023 8.96837 108.995 4.00011 108.995H4L4.00003 102.248C8.96829 102.248 12.9959 98.2209 12.9959 93.2526C12.9959 88.2844 8.96829 84.2568 4.00003 84.2568L4 77.5094H4.00011C8.96837 77.5094 12.9959 73.4818 12.9959 68.5135C12.9959 63.5453 8.96837 59.5177 4.00011 59.5177H4V52.7709H4.00003C8.96829 52.7709 12.9959 48.7434 12.9959 43.7751C12.9959 38.8068 8.96829 34.7793 4.00003 34.7793H4V20Z"/>
</mask>
<path fill-rule="evenodd" clip-rule="evenodd" d="M4 20H235V34.7793C235 34.7793 235 34.7793 235 34.7793C230.031 34.7793 226.004 38.8068 226.004 43.7751C226.004 48.7433 230.031 52.7709 235 52.7709C235 52.7709 235 52.7709 235 52.7709V59.5177C235 59.5177 235 59.5177 234.999 59.5177C230.031 59.5177 226.004 63.5453 226.004 68.5135C226.004 73.4818 230.031 77.5094 234.999 77.5094C235 77.5094 235 77.5094 235 77.5094V84.2568C235 84.2568 235 84.2568 235 84.2568C230.031 84.2568 226.004 88.2844 226.004 93.2526C226.004 98.2209 230.031 102.248 235 102.248C235 102.248 235 102.248 235 102.248V108.995C235 108.995 235 108.995 234.999 108.995C230.031 108.995 226.004 113.023 226.004 117.991C226.004 122.959 230.031 126.987 234.999 126.987C235 126.987 235 126.987 235 126.987V141.765H4V126.987H4.00011C8.96837 126.987 12.9959 122.959 12.9959 117.991C12.9959 113.023 8.96837 108.995 4.00011 108.995H4L4.00003 102.248C8.96829 102.248 12.9959 98.2209 12.9959 93.2526C12.9959 88.2844 8.96829 84.2568 4.00003 84.2568L4 77.5094H4.00011C8.96837 77.5094 12.9959 73.4818 12.9959 68.5135C12.9959 63.5453 8.96837 59.5177 4.00011 59.5177H4V52.7709H4.00003C8.96829 52.7709 12.9959 48.7434 12.9959 43.7751C12.9959 38.8068 8.96829 34.7793 4.00003 34.7793H4V20Z" fill="white"/>
<path d="M235 20H235.378V19.6219H235V20ZM4 20V19.6219H3.62193V20H4ZM235 34.7793V35.1573H235.378V34.7793H235ZM235 52.7709H235.378V52.3928H235V52.7709ZM235 59.5177V59.8958H235.378V59.5177H235ZM235 77.5094H235.378V77.1313H235V77.5094ZM235 84.2568V84.6349H235.378V84.2568H235ZM235 102.248H235.378V101.87H235V102.248ZM235 108.995V109.373H235.378V108.995H235ZM235 126.987H235.378V126.609H235V126.987ZM235 141.765V142.143H235.378V141.765H235ZM4 141.765H3.62193V142.143H4V141.765ZM4 126.987V126.609H3.62193V126.987H4ZM4 108.995H3.62193L3.62193 109.373H4V108.995ZM4.00003 102.248V101.87H3.62197L3.62196 102.248H4.00003ZM4.00003 84.2568H3.62196L3.62197 84.6349H4.00003V84.2568ZM4 77.5094V77.1313H3.62193L3.62193 77.5094H4ZM4 59.5177H3.62193V59.8958H4V59.5177ZM4 52.7709V52.3929H3.62193V52.7709H4ZM4 34.7793H3.62193V35.1573H4V34.7793ZM235 19.6219H4V20.3781H235V19.6219ZM235.378 34.7793V20H234.622V34.7793H235.378ZM235 34.4012H235H235H235H235C235 34.4012 235 34.4012 235 34.4012C235 34.4012 235 34.4012 235 34.4012C235 34.4012 235 34.4012 235 34.4012C235 34.4012 235 34.4012 235 34.4012C235 34.4012 235 34.4012 235 34.4012C235 34.4012 235 34.4012 235 34.4012C235 34.4012 235 34.4012 235 34.4012C235 34.4012 235 34.4012 235 34.4012C235 34.4012 235 34.4012 235 34.4012C235 34.4012 235 34.4012 235 34.4012C235 34.4012 235 34.4012 235 34.4012C235 34.4012 235 34.4012 235 34.4012C235 34.4012 235 34.4012 235 34.4012C235 34.4012 235 34.4012 235 34.4012C235 34.4012 235 34.4012 235 34.4012C235 34.4012 235 34.4012 235 34.4012C235 34.4012 235 34.4012 235 34.4012C235 34.4012 235 34.4012 235 34.4012H235H235H235H235H235V35.1573H235H235H235H235H235C235 35.1573 235 35.1573 235 35.1573C235 35.1573 235 35.1573 235 35.1573C235 35.1573 235 35.1573 235 35.1573C235 35.1573 235 35.1573 235 35.1573C235 35.1573 235 35.1573 235 35.1573C235 35.1573 235 35.1573 235 35.1573C235 35.1573 235 35.1573 235 35.1573C235 35.1573 235 35.1573 235 35.1573C235 35.1573 235 35.1573 235 35.1573C235 35.1573 235 35.1573 235 35.1573C235 35.1573 235 35.1573 235 35.1573C235 35.1573 235 35.1573 235 35.1573C235 35.1573 235 35.1573 235 35.1573C235 35.1573 235 35.1573 235 35.1573C235 35.1573 235 35.1573 235 35.1573C235 35.1573 235 35.1573 235 35.1573C235 35.1573 235 35.1573 235 35.1573C235 35.1573 235 35.1573 235 35.1573H235H235H235H235V34.4012ZM235 34.4012C229.823 34.4012 225.626 38.598 225.626 43.7751H226.382C226.382 39.0156 230.24 35.1573 235 35.1573V34.4012ZM225.626 43.7751C225.626 48.9521 229.823 53.149 235 53.149V52.3928C230.24 52.3928 226.382 48.5345 226.382 43.7751H225.626ZM235 53.149H235H235H235H235H235C235 53.149 235 53.149 235 53.149C235 53.149 235 53.149 235 53.149C235 53.149 235 53.149 235 53.149C235 53.149 235 53.149 235 53.149C235 53.149 235 53.149 235 53.149C235 53.149 235 53.149 235 53.149C235 53.149 235 53.149 235 53.149C235 53.149 235 53.149 235 53.149C235 53.149 235 53.149 235 53.149C235 53.149 235 53.149 235 53.149C235 53.149 235 53.149 235 53.149C235 53.149 235 53.149 235 53.149C235 53.149 235 53.149 235 53.149C235 53.149 235 53.149 235 53.149C235 53.149 235 53.149 235 53.149C235 53.149 235 53.149 235 53.149C235 53.149 235 53.149 235 53.149C235 53.149 235 53.149 235 53.149H235H235H235H235V52.3928H235H235H235H235C235 52.3928 235 52.3928 235 52.3928C235 52.3928 235 52.3928 235 52.3928C235 52.3928 235 52.3928 235 52.3928C235 52.3928 235 52.3928 235 52.3928C235 52.3928 235 52.3928 235 52.3928C235 52.3928 235 52.3928 235 52.3928C235 52.3928 235 52.3928 235 52.3928C235 52.3928 235 52.3928 235 52.3928C235 52.3928 235 52.3928 235 52.3928C235 52.3928 235 52.3928 235 52.3928C235 52.3928 235 52.3928 235 52.3928C235 52.3928 235 52.3928 235 52.3928C235 52.3928 235 52.3928 235 52.3928C235 52.3928 235 52.3928 235 52.3928C235 52.3928 235 52.3928 235 52.3928C235 52.3928 235 52.3928 235 52.3928C235 52.3928 235 52.3928 235 52.3928C235 52.3928 235 52.3928 235 52.3928H235H235H235H235H235V53.149ZM235.378 59.5177V52.7709H234.622V59.5177H235.378ZM235 59.1396C235 59.1396 235 59.1396 235 59.1396H235C235 59.1396 235 59.1396 235 59.1396C235 59.1396 235 59.1396 235 59.1396H235H235H235H235H235H235C235 59.1396 235 59.1396 235 59.1396C235 59.1396 235 59.1396 235 59.1396C235 59.1396 235 59.1396 235 59.1396H235H235C235 59.1396 235 59.1396 235 59.1396C235 59.1396 235 59.1396 235 59.1396H235H235C235 59.1396 235 59.1396 235 59.1396C235 59.1396 235 59.1396 235 59.1396C235 59.1396 235 59.1396 235 59.1396H235H235H235H235H235H235C235 59.1396 235 59.1396 235 59.1396C235 59.1396 235 59.1396 235 59.1396H235C234.999 59.1396 234.999 59.1396 234.999 59.1396V59.8958C234.999 59.8958 234.999 59.8958 235 59.8958H235C235 59.8958 235 59.8958 235 59.8958C235 59.8958 235 59.8958 235 59.8958H235H235H235H235H235H235C235 59.8958 235 59.8958 235 59.8958C235 59.8958 235 59.8958 235 59.8958C235 59.8958 235 59.8958 235 59.8958H235H235C235 59.8958 235 59.8958 235 59.8958C235 59.8958 235 59.8958 235 59.8958H235H235C235 59.8958 235 59.8958 235 59.8958C235 59.8958 235 59.8958 235 59.8958C235 59.8958 235 59.8958 235 59.8958H235H235H235H235H235H235C235 59.8958 235 59.8958 235 59.8958C235 59.8958 235 59.8958 235 59.8958H235C235 59.8958 235 59.8958 235 59.8958V59.1396ZM234.999 59.1396C229.822 59.1396 225.626 63.3365 225.626 68.5135H226.382C226.382 63.7541 230.24 59.8958 234.999 59.8958V59.1396ZM225.626 68.5135C225.626 73.6906 229.822 77.8874 234.999 77.8874V77.1313C230.24 77.1313 226.382 73.273 226.382 68.5135H225.626ZM234.999 77.8874C234.999 77.8874 234.999 77.8874 235 77.8874H235C235 77.8874 235 77.8874 235 77.8874C235 77.8874 235 77.8874 235 77.8874H235H235H235H235H235H235C235 77.8874 235 77.8874 235 77.8874C235 77.8874 235 77.8874 235 77.8874C235 77.8874 235 77.8874 235 77.8874H235H235C235 77.8874 235 77.8874 235 77.8874C235 77.8874 235 77.8874 235 77.8874H235H235C235 77.8874 235 77.8874 235 77.8874C235 77.8874 235 77.8874 235 77.8874C235 77.8874 235 77.8874 235 77.8874H235H235H235H235H235H235C235 77.8874 235 77.8874 235 77.8874C235 77.8874 235 77.8874 235 77.8874H235C235 77.8874 235 77.8874 235 77.8874V77.1313C235 77.1313 235 77.1313 235 77.1313H235C235 77.1313 235 77.1313 235 77.1313C235 77.1313 235 77.1313 235 77.1313H235H235H235H235H235H235C235 77.1313 235 77.1313 235 77.1313C235 77.1313 235 77.1313 235 77.1313C235 77.1313 235 77.1313 235 77.1313H235H235C235 77.1313 235 77.1313 235 77.1313C235 77.1313 235 77.1313 235 77.1313H235H235C235 77.1313 235 77.1313 235 77.1313C235 77.1313 235 77.1313 235 77.1313C235 77.1313 235 77.1313 235 77.1313H235H235H235H235H235H235C235 77.1313 235 77.1313 235 77.1313C235 77.1313 235 77.1313 235 77.1313H235C234.999 77.1313 234.999 77.1313 234.999 77.1313V77.8874ZM235.378 84.2568V77.5094H234.622V84.2568H235.378ZM235 84.6349H235H235H235H235H235C235 84.6349 235 84.6349 235 84.6349C235 84.6349 235 84.6349 235 84.6349C235 84.6349 235 84.6349 235 84.6349C235 84.6349 235 84.6349 235 84.6349C235 84.6349 235 84.6349 235 84.6349C235 84.6349 235 84.6349 235 84.6349C235 84.6349 235 84.6349 235 84.6349C235 84.6349 235 84.6349 235 84.6349C235 84.6349 235 84.6349 235 84.6349C235 84.6349 235 84.6349 235 84.6349C235 84.6349 235 84.6349 235 84.6349C235 84.6349 235 84.6349 235 84.6349C235 84.6349 235 84.6349 235 84.6349C235 84.6349 235 84.6349 235 84.6349C235 84.6349 235 84.6349 235 84.6349C235 84.6349 235 84.6349 235 84.6349C235 84.6349 235 84.6349 235 84.6349C235 84.6349 235 84.6349 235 84.6349H235H235H235H235V83.8787H235H235H235H235C235 83.8787 235 83.8787 235 83.8787C235 83.8787 235 83.8787 235 83.8787C235 83.8787 235 83.8787 235 83.8787C235 83.8787 235 83.8787 235 83.8787C235 83.8787 235 83.8787 235 83.8787C235 83.8787 235 83.8787 235 83.8787C235 83.8787 235 83.8787 235 83.8787C235 83.8787 235 83.8787 235 83.8787C235 83.8787 235 83.8787 235 83.8787C235 83.8787 235 83.8787 235 83.8787C235 83.8787 235 83.8787 235 83.8787C235 83.8787 235 83.8787 235 83.8787C235 83.8787 235 83.8787 235 83.8787C235 83.8787 235 83.8787 235 83.8787C235 83.8787 235 83.8787 235 83.8787C235 83.8787 235 83.8787 235 83.8787C235 83.8787 235 83.8787 235 83.8787C235 83.8787 235 83.8787 235 83.8787H235H235H235H235H235V84.6349ZM226.382 93.2526C226.382 88.4932 230.24 84.6349 235 84.6349V83.8787C229.823 83.8787 225.626 88.0756 225.626 93.2526H226.382ZM235 101.87C230.24 101.87 226.382 98.0121 226.382 93.2526H225.626C225.626 98.4297 229.823 102.627 235 102.627V101.87ZM235 101.87H235H235H235H235C235 101.87 235 101.87 235 101.87C235 101.87 235 101.87 235 101.87C235 101.87 235 101.87 235 101.87C235 101.87 235 101.87 235 101.87C235 101.87 235 101.87 235 101.87C235 101.87 235 101.87 235 101.87C235 101.87 235 101.87 235 101.87C235 101.87 235 101.87 235 101.87C235 101.87 235 101.87 235 101.87C235 101.87 235 101.87 235 101.87C235 101.87 235 101.87 235 101.87C235 101.87 235 101.87 235 101.87C235 101.87 235 101.87 235 101.87C235 101.87 235 101.87 235 101.87C235 101.87 235 101.87 235 101.87C235 101.87 235 101.87 235 101.87C235 101.87 235 101.87 235 101.87C235 101.87 235 101.87 235 101.87H235H235H235H235H235V102.627H235H235H235H235H235C235 102.627 235 102.627 235 102.627C235 102.627 235 102.627 235 102.627C235 102.627 235 102.627 235 102.627C235 102.627 235 102.627 235 102.627C235 102.627 235 102.627 235 102.627C235 102.627 235 102.627 235 102.627C235 102.627 235 102.627 235 102.627C235 102.627 235 102.627 235 102.627C235 102.627 235 102.627 235 102.627C235 102.627 235 102.627 235 102.627C235 102.627 235 102.627 235 102.627C235 102.627 235 102.627 235 102.627C235 102.627 235 102.627 235 102.627C235 102.627 235 102.627 235 102.627C235 102.627 235 102.627 235 102.627C235 102.627 235 102.627 235 102.627C235 102.627 235 102.627 235 102.627C235 102.627 235 102.627 235 102.627H235H235H235H235V101.87ZM235.378 108.995V102.248H234.622V108.995H235.378ZM235 108.617C235 108.617 235 108.617 235 108.617H235C235 108.617 235 108.617 235 108.617C235 108.617 235 108.617 235 108.617H235H235H235H235H235H235C235 108.617 235 108.617 235 108.617C235 108.617 235 108.617 235 108.617C235 108.617 235 108.617 235 108.617H235H235C235 108.617 235 108.617 235 108.617C235 108.617 235 108.617 235 108.617H235H235C235 108.617 235 108.617 235 108.617C235 108.617 235 108.617 235 108.617C235 108.617 235 108.617 235 108.617H235H235H235H235H235H235C235 108.617 235 108.617 235 108.617C235 108.617 235 108.617 235 108.617H235C234.999 108.617 234.999 108.617 234.999 108.617V109.373C234.999 109.373 234.999 109.373 235 109.373H235C235 109.373 235 109.373 235 109.373C235 109.373 235 109.373 235 109.373H235H235H235H235H235H235C235 109.373 235 109.373 235 109.373C235 109.373 235 109.373 235 109.373C235 109.373 235 109.373 235 109.373H235H235C235 109.373 235 109.373 235 109.373C235 109.373 235 109.373 235 109.373H235H235C235 109.373 235 109.373 235 109.373C235 109.373 235 109.373 235 109.373C235 109.373 235 109.373 235 109.373H235H235H235H235H235H235C235 109.373 235 109.373 235 109.373C235 109.373 235 109.373 235 109.373H235C235 109.373 235 109.373 235 109.373V108.617ZM234.999 108.617C229.822 108.617 225.626 112.814 225.626 117.991H226.382C226.382 113.232 230.24 109.373 234.999 109.373V108.617ZM225.626 117.991C225.626 123.168 229.822 127.365 234.999 127.365V126.609C230.24 126.609 226.382 122.751 226.382 117.991H225.626ZM234.999 127.365C234.999 127.365 234.999 127.365 235 127.365H235C235 127.365 235 127.365 235 127.365C235 127.365 235 127.365 235 127.365H235H235H235H235H235H235C235 127.365 235 127.365 235 127.365C235 127.365 235 127.365 235 127.365C235 127.365 235 127.365 235 127.365H235H235C235 127.365 235 127.365 235 127.365C235 127.365 235 127.365 235 127.365H235H235C235 127.365 235 127.365 235 127.365C235 127.365 235 127.365 235 127.365C235 127.365 235 127.365 235 127.365H235H235H235H235H235H235C235 127.365 235 127.365 235 127.365C235 127.365 235 127.365 235 127.365H235C235 127.365 235 127.365 235 127.365V126.609C235 126.609 235 126.609 235 126.609H235C235 126.609 235 126.609 235 126.609C235 126.609 235 126.609 235 126.609H235H235H235H235H235H235C235 126.609 235 126.609 235 126.609C235 126.609 235 126.609 235 126.609C235 126.609 235 126.609 235 126.609H235H235C235 126.609 235 126.609 235 126.609C235 126.609 235 126.609 235 126.609H235H235C235 126.609 235 126.609 235 126.609C235 126.609 235 126.609 235 126.609C235 126.609 235 126.609 235 126.609H235H235H235H235H235H235C235 126.609 235 126.609 235 126.609C235 126.609 235 126.609 235 126.609H235C234.999 126.609 234.999 126.609 234.999 126.609V127.365ZM235.378 141.765V126.987H234.622V141.765H235.378ZM4 142.143H235V141.387H4V142.143ZM3.62193 126.987V141.765H4.37807V126.987H3.62193ZM4.00011 126.609H4V127.365H4.00011V126.609ZM12.6179 117.991C12.6179 122.751 8.75957 126.609 4.00011 126.609V127.365C9.17717 127.365 13.374 123.168 13.374 117.991H12.6179ZM4.00011 109.373C8.75957 109.373 12.6179 113.232 12.6179 117.991H13.374C13.374 112.814 9.17718 108.617 4.00011 108.617V109.373ZM4 109.373H4.00011V108.617H4V109.373ZM3.62196 102.248L3.62193 108.995H4.37807L4.3781 102.248H3.62196ZM12.6178 93.2526C12.6178 98.0121 8.75949 101.87 4.00003 101.87V102.627C9.17709 102.627 13.3739 98.4297 13.3739 93.2526H12.6178ZM4.00003 84.6349C8.75949 84.6349 12.6178 88.4932 12.6178 93.2526H13.3739C13.3739 88.0756 9.17709 83.8787 4.00003 83.8787V84.6349ZM3.62193 77.5094L3.62196 84.2568H4.3781L4.37807 77.5094H3.62193ZM4.00011 77.1313H4V77.8874H4.00011V77.1313ZM12.6179 68.5135C12.6179 73.273 8.75957 77.1313 4.00011 77.1313V77.8874C9.17717 77.8874 13.374 73.6906 13.374 68.5135H12.6179ZM4.00011 59.8958C8.75957 59.8958 12.6179 63.7541 12.6179 68.5135H13.374C13.374 63.3365 9.17717 59.1396 4.00011 59.1396V59.8958ZM4 59.8958H4.00011V59.1396H4V59.8958ZM3.62193 52.7709V59.5177H4.37807V52.7709H3.62193ZM4.00003 52.3929H4V53.149H4.00003V52.3929ZM12.6178 43.7751C12.6178 48.5345 8.75949 52.3929 4.00003 52.3929V53.149C9.17709 53.149 13.3739 48.9522 13.3739 43.7751H12.6178ZM4.00003 35.1573C8.75949 35.1573 12.6178 39.0156 12.6178 43.7751H13.3739C13.3739 38.598 9.17709 34.4012 4.00003 34.4012V35.1573ZM4 35.1573H4.00003V34.4012H4V35.1573ZM3.62193 20V34.7793H4.37807V20H3.62193Z" fill="black" mask="url(#path-1-inside-1_2010_2724)"/>
</g>
<g filter="url(#filter1_d_2010_2724)">
<rect x="199.5" width="60" height="60" rx="30" fill="#D68B30"/>
<path d="M221.5 38H237.5M229.5 32V22M229.5 32L233.5 28M229.5 32L225.5 28" stroke="white" stroke-width="2" stroke-linecap="round" stroke-linejoin="round"/>
</g>
<defs>
<filter id="filter0_d_2010_2724" x="0.975449" y="17.7316" width="238.561" height="129.326" filterUnits="userSpaceOnUse" color-interpolation-filters="sRGB">
<feFlood flood-opacity="0" result="BackgroundImageFix"/>
<feColorMatrix in="SourceAlpha" type="matrix" values="0 0 0 0 0 0 0 0 0 0 0 0 0 0 0 0 0 0 127 0" result="hardAlpha"/>
<feOffset dx="0.756138" dy="1.51228"/>
<feGaussianBlur stdDeviation="1.89034"/>
<feComposite in2="hardAlpha" operator="out"/>
<feColorMatrix type="matrix" values="0 0 0 0 0 0 0 0 0 0 0 0 0 0 0 0 0 0 0.25 0"/>
<feBlend mode="normal" in2="BackgroundImageFix" result="effect1_dropShadow_2010_2724"/>
<feBlend mode="normal" in="SourceGraphic" in2="effect1_dropShadow_2010_2724" result="shape"/>
</filter>
<filter id="filter1_d_2010_2724" x="195.5" y="0" width="68" height="68" filterUnits="userSpaceOnUse" color-interpolation-filters="sRGB">
<feFlood flood-opacity="0" result="BackgroundImageFix"/>
<feColorMatrix in="SourceAlpha" type="matrix" values="0 0 0 0 0 0 0 0 0 0 0 0 0 0 0 0 0 0 127 0" result="hardAlpha"/>
<feOffset dy="4"/>
<feGaussianBlur stdDeviation="2"/>
<feComposite in2="hardAlpha" operator="out"/>
<feColorMatrix type="matrix" values="0 0 0 0 0 0 0 0 0 0 0 0 0 0 0 0 0 0 0.25 0"/>
<feBlend mode="normal" in2="BackgroundImageFix" result="effect1_dropShadow_2010_2724"/>
<feBlend mode="normal" in="SourceGraphic" in2="effect1_dropShadow_2010_2724" result="shape"/>
</filter>
</defs>
</svg>
