<svg width="137" height="30" viewBox="0 0 137 30" fill="none" xmlns="http://www.w3.org/2000/svg">
<path d="M129.39 21.3317H135.876V23.9247H126.318V8.80566H129.39V21.3317Z" fill="#3F422F"/>
<path d="M111.404 24.0643C110.151 24.0643 109.06 23.805 108.13 23.2864C107.214 22.7545 106.507 22.0165 106.009 21.0724C105.524 20.1283 105.281 19.0446 105.281 17.8212V8.80566H108.353V17.7814C108.353 18.8717 108.602 19.7228 109.1 20.3344C109.599 20.9328 110.367 21.232 111.404 21.232C112.441 21.232 113.209 20.9328 113.707 20.3344C114.206 19.7228 114.455 18.8717 114.455 17.7814V8.80566H117.526V17.8212C117.526 19.0446 117.277 20.1283 116.779 21.0724C116.294 22.0165 115.587 22.7545 114.657 23.2864C113.741 23.805 112.657 24.0643 111.404 24.0643Z" fill="#3F422F"/>
<path d="M88.2824 19.1974C89.1311 20.7532 90.1347 21.5311 91.2932 21.5311C92.1688 21.5311 92.8087 21.3649 93.2128 21.0324C93.6304 20.6867 93.8392 20.2213 93.8392 19.6362C93.8392 19.2905 93.718 18.998 93.4755 18.7586C93.2465 18.5193 92.9501 18.3198 92.5864 18.1602C92.2362 18.0007 91.7445 17.8145 91.1113 17.6017C90.1414 17.256 89.3466 16.9302 88.7269 16.6244C88.1207 16.3052 87.5953 15.8465 87.1508 15.2481C86.7062 14.6364 86.484 13.8519 86.484 12.8945C86.484 12.0302 86.6995 11.2789 87.1306 10.6406C87.5617 10.0023 88.1611 9.51032 88.929 9.16459C89.7103 8.81886 90.6061 8.646 91.6165 8.646C92.2227 8.646 92.8491 8.77897 93.4957 9.04492C94.1558 9.29756 94.762 9.70313 95.3143 10.2616C95.8801 10.8068 96.3247 11.4983 96.648 12.336L93.9605 13.3134C93.6372 12.5288 93.2667 11.9836 92.8491 11.6778C92.445 11.3719 92.0341 11.219 91.6165 11.219C90.9429 11.219 90.4243 11.3786 90.0606 11.6977C89.7103 12.0169 89.5352 12.4158 89.5352 12.8945C89.5352 13.2402 89.6564 13.5394 89.8989 13.7921C90.1414 14.0447 90.4445 14.2575 90.8082 14.4303C91.1854 14.6032 91.704 14.8159 92.3641 15.0686C93.3206 15.4409 94.0952 15.7867 94.6879 16.1058C95.2941 16.4249 95.8128 16.877 96.2438 17.4621C96.6749 18.0339 96.8905 18.7586 96.8905 19.6362C96.8905 20.5138 96.6614 21.2917 96.2034 21.9699C95.7589 22.6348 95.1123 23.16 94.2636 23.5456C93.4284 23.918 92.4382 24.1041 91.2932 24.1041C90.1751 24.1041 89.1445 23.7983 88.2015 23.1866C87.272 22.5616 86.4705 21.6973 85.7969 20.5936L88.2824 19.1974Z" fill="#3F422F"/>
<path d="M70.4251 21.4513C71.8665 21.4513 73.0049 20.9992 73.8401 20.095C74.6887 19.1775 75.1131 17.9342 75.1131 16.3651C75.1131 14.796 74.6887 13.5594 73.8401 12.6551C73.0049 11.7376 71.8665 11.2789 70.4251 11.2789C68.9837 11.2789 67.8386 11.7376 66.99 12.6551C66.1547 13.5594 65.7371 14.796 65.7371 16.3651C65.7371 17.9342 66.1547 19.1775 66.99 20.095C67.8386 20.9992 68.9837 21.4513 70.4251 21.4513ZM70.4251 8.646C71.9204 8.646 73.2541 8.97843 74.4261 9.64329C75.6115 10.2949 76.5343 11.2057 77.1944 12.3759C77.8545 13.5461 78.1845 14.8758 78.1845 16.3651C78.1845 17.8544 77.8545 19.1841 77.1944 20.3543C76.5343 21.5244 75.6115 22.442 74.4261 23.1068C73.2541 23.7584 71.9204 24.0842 70.4251 24.0842C68.9298 24.0842 67.5894 23.7584 66.404 23.1068C65.232 22.442 64.3159 21.5244 63.6558 20.3543C62.9958 19.1841 62.6657 17.8544 62.6657 16.3651C62.6657 14.8758 62.9958 13.5461 63.6558 12.3759C64.3159 11.2057 65.232 10.2949 66.404 9.64329C67.5894 8.97843 68.9298 8.646 70.4251 8.646Z" fill="#3F422F"/>
<path d="M46.2429 19.1974C47.0916 20.7532 48.0952 21.5311 49.2537 21.5311C50.1293 21.5311 50.7692 21.3649 51.1733 21.0324C51.5909 20.6867 51.7997 20.2213 51.7997 19.6362C51.7997 19.2905 51.6785 18.998 51.436 18.7586C51.207 18.5193 50.9106 18.3198 50.5469 18.1602C50.1967 18.0007 49.705 17.8145 49.0718 17.6017C48.1019 17.256 47.3071 16.9302 46.6874 16.6244C46.0812 16.3052 45.5559 15.8465 45.1113 15.2481C44.6668 14.6364 44.4445 13.8519 44.4445 12.8945C44.4445 12.0302 44.66 11.2789 45.0911 10.6406C45.5222 10.0023 46.1216 9.51032 46.8895 9.16459C47.6708 8.81886 48.5667 8.646 49.577 8.646C50.1832 8.646 50.8096 8.77897 51.4562 9.04492C52.1163 9.29756 52.7225 9.70313 53.2748 10.2616C53.8406 10.8068 54.2852 11.4983 54.6085 12.336L51.921 13.3134C51.5977 12.5288 51.2272 11.9836 50.8096 11.6778C50.4055 11.3719 49.9946 11.219 49.577 11.219C48.9034 11.219 48.3848 11.3786 48.0211 11.6977C47.6708 12.0169 47.4957 12.4158 47.4957 12.8945C47.4957 13.2402 47.6169 13.5394 47.8594 13.7921C48.1019 14.0447 48.405 14.2575 48.7687 14.4303C49.1459 14.6032 49.6646 14.8159 50.3247 15.0686C51.2811 15.4409 52.0557 15.7867 52.6484 16.1058C53.2546 16.4249 53.7733 16.877 54.2044 17.4621C54.6354 18.0339 54.851 18.7586 54.851 19.6362C54.851 20.5138 54.622 21.2917 54.1639 21.9699C53.7194 22.6348 53.0728 23.16 52.2241 23.5456C51.3889 23.918 50.3987 24.1041 49.2537 24.1041C48.1356 24.1041 47.105 23.7983 46.1621 23.1866C45.2325 22.5616 44.431 21.6973 43.7574 20.5936L46.2429 19.1974Z" fill="#3F422F"/>
<path fill-rule="evenodd" clip-rule="evenodd" d="M32.7792 13.9419L23.7683 0L15.6123 12.6312L15.6048 12.6197L6.35537 26.9018H0.5V30H136.5V26.9018H28.1158L38.59 16.5627C39.0348 16.1236 39.1679 15.4633 38.9271 14.8896C38.6864 14.316 38.1193 13.9419 37.4903 13.9419H32.7792ZM29.096 13.9419L23.7695 5.70069L17.4552 15.4796L24.4056 26.2219L33.7356 17.0123H23.8119V13.9419H29.096ZM15.6036 18.3204L21.1558 26.9018H17.1507V24.4459H14.0502V26.9018H10.046L15.6036 18.3204Z" fill="#3F422F"/>
</svg>
